<?xml version="1.0" encoding="UTF-8" standalone="no"?>
<!-- Created with Inkscape (http://www.inkscape.org/) -->

<svg
     xmlns:dc="http://purl.org/dc/elements/1.1/"
     xmlns:cc="http://creativecommons.org/ns#"
     xmlns:rdf="http://www.w3.org/1999/02/22-rdf-syntax-ns#"
     xmlns:svg="http://www.w3.org/2000/svg"
     xmlns="http://www.w3.org/2000/svg"
     xmlns:xlink="http://www.w3.org/1999/xlink"
     xmlns:sodipodi="http://sodipodi.sourceforge.net/DTD/sodipodi-0.dtd"
     xmlns:inkscape="http://www.inkscape.org/namespaces/inkscape"
     width="343.78568"
     height="327.18173"
     id="svg3364"
     version="1.1"
     inkscape:version="0.48.5 r10040"
     sodipodi:docname="New document 2">
    <defs
         id="defs3366">
        <radialGradient
             inkscape:collect="always"
             xlink:href="#SVGID_1_"
             id="radialGradient3496"
             gradientUnits="userSpaceOnUse"
             gradientTransform="matrix(4.6083871,0,0,-1.0281312,0,123.90862)"
             cx="37.075199"
             cy="85.349602"
             r="31.4018" />
        <radialGradient
             id="SVGID_1_"
             cx="37.075199"
             cy="85.349602"
             r="31.4018"
             gradientTransform="matrix(1,0,0,-0.2231,0,101.0524)"
             gradientUnits="userSpaceOnUse">
            <stop
                 offset="0.0863"
                 style="stop-color:#000000;stop-opacity:0.2471"
                 id="stop28" />
            <stop
                 offset="0.8667"
                 style="stop-color:#000000;stop-opacity:0.102"
                 id="stop30" />
            <stop
                 offset="1"
                 style="stop-color:#000000;stop-opacity:0"
                 id="stop32" />
        </radialGradient>
        <radialGradient
             inkscape:collect="always"
             xlink:href="#SVGID_1_"
             id="radialGradient4250"
             gradientUnits="userSpaceOnUse"
             gradientTransform="matrix(4.5420917,0,0,-1.3362008,685.14841,736.50924)"
             cx="37.075199"
             cy="85.349602"
             r="31.4018" />
        <radialGradient
             inkscape:collect="always"
             xlink:href="#SVGID_1_"
             id="radialGradient4819"
             gradientUnits="userSpaceOnUse"
             gradientTransform="matrix(4.5420917,0,0,-1.3362008,685.14841,736.50924)"
             cx="37.075199"
             cy="85.349602"
             r="31.4018" />
    </defs>
    <sodipodi:namedview
         id="base"
         pagecolor="#ffffff"
         bordercolor="#666666"
         borderopacity="1.0"
         inkscape:pageopacity="0.0"
         inkscape:pageshadow="2"
         inkscape:zoom="1.2"
         inkscape:cx="-309.77383"
         inkscape:cy="7.4018474"
         inkscape:document-units="px"
         inkscape:current-layer="layer1"
         showgrid="false"
         fit-margin-top="0"
         fit-margin-left="0"
         fit-margin-right="0"
         fit-margin-bottom="0" />
    <metadata
         id="metadata3369">
        <rdf:RDF>
            <cc:Work
                 rdf:about="">
                <dc:format>image/svg+xml</dc:format>
                <dc:type
                     rdf:resource="http://purl.org/dc/dcmitype/StillImage" />
                <dc:title></dc:title>
            </cc:Work>
        </rdf:RDF>
    </metadata>
    <g
         inkscape:label="Layer 1"
         inkscape:groupmode="layer"
         id="layer1"
         transform="translate(-684.77383,-337.37029)">
        <g
             id="g4714">
            <path
                 inkscape:connector-curvature="0"
                 id="path34"
                 d="M 853.4329,580.55286 C 892.7992,580.55286 926.4879,584.64951 954.49444,592.8368 982.35566,601.17383 996.2817,611.11598 996.2817,622.66325 996.2817,634.21051 982.35566,644.08078 954.49444,652.26809 926.4879,660.45539 892.7992,664.55203 853.4329,664.55203 814.0666,664.55203 780.45964,660.45539 752.59846,652.26809 724.73727,644.08078 710.81121,634.20452 710.81121,622.66325 710.81121,611.10999 724.74181,601.16785 752.59846,592.8368 780.4551,584.64351 814.0666,580.55286 853.4329,580.55286 z"
                 style="fill:url(#radialGradient4819);fill-rule:evenodd" />
            <path
                 style="fill:#7e4e18;fill-rule:evenodd"
                 d="M 949.06483,392.29932 C 961.50748,388.24855 970.49383,384.19778 976.0285,380.147 975.10683,384.19778 974.33723,389.99052 973.72431,397.52984 972.65056,412.60387 972.80263,428.69175 974.18515,445.78887 976.48934,473.24103 979.86729,529.20989 984.3236,613.70006 979.86729,620.67255 971.49846,627.53905 959.20789,634.29034 934.78344,647.8989 903.14225,654.31378 864.27512,653.52574 818.80416,652.73771 782.70666,647.733 755.97802,638.50701 747.68292,635.58068 740.84407,632.43316 735.47069,629.05521 L 729.71021,624.83393 C 732.0144,621.91221 734.08818,618.42366 735.93153,614.37289 739.61824,606.27134 740.46158,599.63526 738.46614,594.46005 737.08363,590.8609 737.85323,572.0172 740.77034,537.92435 743.68745,503.16329 743.92247,481.56839 741.4616,473.12582 737.00989,457.60017 732.0144,428.51663 726.48434,385.87984 735.24027,388.58035 747.37877,391.33617 762.8906,394.14728 793.91887,399.65891 826.48634,402.69584 860.58841,403.26267 894.68586,403.8295 924.17954,400.17045 949.06483,392.29932 z"
                 id="use4016"
                 inkscape:connector-curvature="0" />
            <g
                 transform="translate(800,0)"
                 id="g4622">
                <path
                     style="fill:#7e4e18;fill-rule:evenodd"
                     d="M 149.06483,392.29932 C 161.50748,388.24855 170.49383,384.19778 176.0285,380.147 175.10683,384.19778 174.33723,389.99052 173.72431,397.52984 172.65056,412.60387 172.80263,428.69175 174.18515,445.78887 176.48934,473.24103 179.86729,529.20989 184.3236,613.70006 179.86729,620.67255 171.49846,627.53905 159.20789,634.29034 134.78344,647.8989 103.14225,654.31378 64.27512,653.52574 18.80416,652.73771 -17.29334,647.733 -44.02198,638.50701 -52.31708,635.58068 -59.15593,632.43316 -64.52931,629.05521 L -70.28979,624.83393 C -67.9856,621.91221 -65.91182,618.42366 -64.06847,614.37289 -60.38176,606.27134 -59.53842,599.63526 -61.53386,594.46005 -62.91637,590.8609 -62.14677,572.0172 -59.22966,537.92435 -56.31255,503.16329 -56.07753,481.56839 -58.5384,473.12582 -62.99011,457.60017 -67.9856,428.51663 -73.51566,385.87984 -64.75973,388.58035 -52.62123,391.33617 -37.1094,394.14728 -6.08113,399.65891 26.48634,402.69584 60.58841,403.26267 94.68586,403.8295 124.17954,400.17045 149.06483,392.29932 z"
                     id="path42"
                     inkscape:connector-curvature="0" />
                <path
                     style="fill:#7e4e18;fill-rule:evenodd"
                     d="M 182.47564,493.03866 C 177.40641,518.01612 174.33262,530.78135 173.25886,531.34818 172.18511,532.02101 172.49387,536.01648 174.18054,543.32999 174.18054,551.54214 169.34173,557.83719 159.66873,562.22899 145.68688,568.64386 141.8481,553.79103 148.14776,517.67971 150.60403,504.17713 158.12953,473.63274 170.72425,426.04654 L 203.67422,402.08753 209.4347,410.01857 C 213.57764,416.09242 216.72978,420.99114 218.88189,424.70089 220.72525,428.07423 217.7298,432.18491 209.89554,437.02372 199.91377,443.09296 194.30537,447.20364 193.07954,449.34194 191.23157,452.37425 187.69694,466.94137 182.47564,493.03866 z"
                     id="path44"
                     inkscape:connector-curvature="0" />
                <path
                     style="fill:#c49764;fill-rule:evenodd"
                     d="M 203.67422,403.7742 C 209.66512,399.27181 214.89103,401.4101 219.33813,410.18908 223.64236,418.95884 222.79442,426.04654 216.80351,431.44757 211.12137,436.62279 206.28256,434.20799 202.2917,424.19397 198.44831,414.06934 198.91375,407.25814 203.67422,403.7742 z"
                     id="path46"
                     inkscape:connector-curvature="0" />
                <path
                     style="fill:#704515;fill-rule:evenodd"
                     d="M -34.11856,478.36095 C -35.96192,482.18591 -37.42277,498.10328 -38.49653,526.11767 -39.57028,554.80488 -40.72238,571.00336 -41.95282,574.71772 -44.40909,582.81926 -45.25703,603.85655 -44.48743,637.82958 L -53.24337,631.07829 C -50.7871,598.90714 -48.71332,577.41362 -47.02204,566.61617 -45.48745,556.49154 -43.94825,540.74469 -42.41366,519.36638 -40.87906,495.18156 -40.72238,479.7619 -41.95282,473.13043 L -58.54301,385.71854 -45.63953,393.64958 C -42.8745,406.0231 -40.33988,418.79294 -38.03569,431.9591 -33.27523,458.50341 -31.96644,473.97837 -34.11856,478.36095 z"
                     id="path48"
                     inkscape:connector-curvature="0" />
                <path
                     style="fill:#704515;fill-rule:evenodd"
                     d="M 17.03454,399.89394 30.39886,401.2442 C 28.55551,409.90336 26.71215,419.12935 24.8688,428.91756 21.03001,448.59999 18.80416,461.54034 18.18664,467.7294 17.87787,472.453 17.49538,488.14916 17.03454,514.81329 16.5737,542.48666 16.11286,560.2059 15.65202,567.96643 14.73035,583.15567 14.73035,611.39126 15.65202,652.6778 L 4.13106,649.97729 C 5.05273,619.4928 5.89607,597.55688 6.66567,584.16952 6.96982,580.57037 7.66108,563.01702 8.73944,531.5187 9.8132,504.29695 10.81322,487.02472 11.73489,479.71121 13.42617,467.22709 15.19118,440.61365 17.03454,399.89394 z"
                     id="path50"
                     inkscape:connector-curvature="0" />
                <path
                     style="fill:#704515;fill-rule:evenodd"
                     d="M -30.20143,394.82932 -16.14585,397.35933 -16.60669,424.01885 C -16.91084,443.14366 -16.83711,456.36512 -16.37627,463.67402 L -8.54201,577.41362 C -7.77241,591.70423 -6.08574,614.9858 -3.47278,647.27677 L -13.84165,645.92651 C -11.9983,624.44221 -12.3808,609.19767 -14.99375,600.19749 -16.06751,596.48313 -17.06753,579.1602 -17.98921,548.2241 -18.75881,517.96543 -20.2934,499.62405 -22.59759,493.20917 -25.21055,486.00626 -27.28432,467.44829 -28.81892,437.52142 -29.58852,422.55799 -30.04935,408.32729 -30.20143,394.82932 z"
                     id="path52"
                     inkscape:connector-curvature="0" />
                <path
                     style="fill:#704515;fill-rule:evenodd"
                     d="M 29.93802,459.96427 45.1457,409.84345 C 43.45442,419.06944 41.76775,428.80235 40.07648,439.03758 36.54184,459.73846 34.77683,472.84471 34.77683,478.35634 34.77683,482.85874 34.54641,498.21388 34.08557,524.42639 33.78142,549.73565 34.46807,566.04934 36.15935,573.36285 38.61562,584.95294 37.31144,611.38665 32.24222,652.67319 L 27.17299,651.32754 C 28.86427,633.43778 29.7076,619.54811 29.7076,609.64468 29.7076,601.43254 28.938,584.33081 27.40341,558.34412 25.86882,530.89195 24.4863,512.78099 23.25586,504.00662 22.18211,496.1355 24.40796,481.45318 29.93802,459.96427 z"
                     id="path54"
                     inkscape:connector-curvature="0" />
                <path
                     style="fill:#704515;fill-rule:evenodd"
                     d="M -22.59759,645.92651 -27.89724,643.23061 C -30.35812,619.93982 -31.58395,605.1469 -31.58395,598.84723 -31.58395,594.91167 -30.27977,578.14636 -27.66682,548.56051 L -23.98011,505.36149 -23.05843,552.9477 C -22.44552,585.68568 -21.90633,604.58467 -21.4455,609.64929 -20.52382,617.75083 -20.90631,629.84324 -22.59759,645.92651 z"
                     id="path56"
                     inkscape:connector-curvature="0" />
                <polygon
                     style="fill:#704515;fill-rule:evenodd"
                     points="17.3,86.621 15.35,85.742 16.75,79.041 "
                     id="polygon58"
                     transform="matrix(4.6083869,0,0,4.6083869,-115.22617,242.69726)" />
                <path
                     style="fill:#704515;fill-rule:evenodd"
                     d="M 149.75609,483.76198 C 147.60397,473.74795 146.99106,456.14392 147.91273,430.94525 148.37818,418.45653 148.98649,406.92634 149.75609,396.35009 L 158.74244,389.60341 C 155.3645,421.10174 153.21238,444.89484 152.2907,460.98272 151.52571,478.42086 155.82533,500.8084 165.19419,528.14536 168.57213,538.04417 174.95014,566.56087 184.31899,613.70006 L 171.41551,628.38238 C 168.03756,608.69535 165.95918,594.86098 165.18958,586.87003 164.11582,577.41823 162.04205,561.78658 158.96825,539.95665 154.982,513.06671 151.90821,494.33362 149.75609,483.76198 z"
                     id="path60"
                     inkscape:connector-curvature="0" />
                <path
                     style="fill:#704515;fill-rule:evenodd"
                     d="M 165.19419,629.72803 C 154.13866,612.73691 148.60399,601.99476 148.60399,597.49697 L 149.75609,520.20971 152.52112,551.77256 C 154.67324,573.59327 156.28617,586.14191 157.36454,589.40004 159.20328,594.79646 161.81163,608.24373 165.19419,629.72803 z"
                     id="path62"
                     inkscape:connector-curvature="0" />
                <path
                     style="fill:#704515;fill-rule:evenodd"
                     d="M 202.2917,424.69628 207.36093,430.09731 C 205.51757,430.77014 203.13504,431.95449 200.21793,433.64577 194.53579,437.01911 189.30987,441.23578 184.54941,446.3004 179.78895,451.24981 176.02389,458.78913 173.25886,468.91376 172.13902,473.02905 171.33256,476.7941 170.84407,480.21813 171.39707,475.30559 172.20354,470.13037 173.25886,464.69247 175.56306,452.09314 178.02393,444.16211 180.63689,440.89937 183.40192,437.52603 187.85362,433.81167 193.9966,429.7609 197.0704,427.73321 199.83082,426.04654 202.2917,424.69628 z"
                     id="path64"
                     inkscape:connector-curvature="0" />
                <path
                     style="fill:#704515;fill-rule:evenodd"
                     d="M 164.04209,388.07804 174.18054,380.48802 175.56306,384.03187 C 176.33266,387.18401 176.71515,390.38684 176.71515,393.64958 V 420.64551 L 166.58131,438.19886 164.04209,388.07804 z"
                     id="path66"
                     inkscape:connector-curvature="0" />
                <path
                     style="fill:#704515;fill-rule:evenodd"
                     d="M 52.74954,489.1584 C 52.13662,495.12165 52.90162,512.49988 55.05373,541.29769 57.35793,569.98951 59.12294,586.01748 60.34877,589.39543 61.57921,592.54757 63.19214,598.95783 65.19218,608.63544 67.18762,617.52502 68.57013,624.55281 69.33512,629.72803 L 71.86974,655.37832 64.27051,653.52114 C 63.65298,646.43344 62.65296,638.56231 61.27506,629.89393 58.35795,612.57101 55.05373,599.97168 51.36702,592.09594 47.68031,584.56123 46.06738,565.88344 46.52822,536.07178 47.75866,506.14952 48.14115,489.1584 47.68031,485.10763 47.0674,480.15822 48.14115,469.24556 50.90618,452.36965 L 55.28415,428.74705 64.27051,411.19371 52.74954,489.1584 z"
                     id="path68"
                     inkscape:connector-curvature="0" />
                <path
                     style="fill:#704515;fill-rule:evenodd"
                     d="M 53.90164,651.33215 H 39.84606 C 39.84606,644.80668 40.07648,638.22129 40.53731,631.58521 41.45899,618.08264 42.99819,610.77374 45.1457,609.64929 47.29782,608.52484 49.37159,615.16092 51.36702,629.55752 52.44078,636.64522 53.28872,643.90804 53.90164,651.33215 z"
                     id="path70"
                     inkscape:connector-curvature="0" />
                <path
                     style="fill:#704515;fill-rule:evenodd"
                     d="M 75.79148,411.19371 C 76.55647,453.38349 76.09563,477.56831 74.40896,483.75737 73.3352,488.03395 73.94351,504.51355 76.24771,533.20076 78.5519,559.74967 80.4736,577.18781 82.00819,585.51517 83.69947,594.40014 82.85613,617.2393 79.47358,654.02806 75.16934,616.33606 72.1785,593.95312 70.48722,586.86542 69.10471,581.01277 67.57011,566.89728 65.87883,544.50974 64.19216,521.22356 63.65298,505.47209 64.2659,497.25995 64.72674,489.94644 66.80051,473.40693 70.48722,447.64605 72.33518,434.82091 74.1002,422.6732 75.79148,411.19371 z"
                     id="path72"
                     inkscape:connector-curvature="0" />
                <path
                     style="fill:#704515;fill-rule:evenodd"
                     d="M 89.84706,411.19371 96.06838,409.84345 92.38167,487.80814 C 92.38167,492.87276 93.76418,509.46295 96.52922,537.59255 99.29425,566.50096 101.28968,583.7732 102.52012,589.39543 104.20679,597.49697 107.20685,618.13794 111.50648,651.32754 H 98.60299 C 96.91171,626.23948 96.06377,609.19306 96.06377,600.19288 96.06377,596.47852 94.45083,580.16483 91.22496,551.25642 88.15578,524.03467 86.847,508.73022 87.30783,505.35688 88.07744,499.06182 88.92538,467.66949 89.84706,411.19371 z"
                     id="path74"
                     inkscape:connector-curvature="0" />
                <path
                     style="fill:#704515;fill-rule:evenodd"
                     d="M 137.08302,403.09677 C 136.31342,413.2214 135.54843,423.79765 134.77883,434.82091 133.24424,456.76144 132.70506,469.97829 133.16589,474.47608 133.77881,479.6513 134.77883,495.62397 136.15674,522.3987 137.53925,548.83241 138.23051,565.82353 138.23051,573.36285 138.23051,581.23858 138.76509,590.23415 139.84345,600.35878 140.9172,610.93503 142.0693,617.17479 143.29974,619.09188 145.14309,621.79239 147.75605,628.03215 151.134,637.82036 L 142.14764,643.22139 C 138.76969,619.03657 137.07842,605.13768 137.07842,601.53853 133.70047,543.60189 131.08751,511.08972 129.24416,504.00202 128.32248,499.95124 128.1704,488.75747 128.78332,470.4207 129.39623,452.08393 129.54831,442.18511 129.24416,440.71964 128.78332,438.58135 128.47917,431.88997 128.32248,420.6409 L 128.09206,404.44242 137.08302,403.09677 z"
                     id="path76"
                     inkscape:connector-curvature="0" />
                <path
                     style="fill:#704515;fill-rule:evenodd"
                     d="M 111.50648,408.4978 H 119.10571 L 116.11486,440.72886 C 114.11482,462.77999 113.42356,474.87701 114.04109,477.01069 114.50193,479.25959 113.81067,495.79909 111.96731,526.62459 111.04564,541.92443 110.05022,557.05838 108.97647,572.02181 107.90272,557.05838 106.9027,541.92904 105.98102,526.62459 103.98098,495.8037 103.29433,479.26419 103.90724,477.01069 104.67224,473.52214 107.20685,450.68758 111.50648,408.4978 z"
                     id="path78"
                     inkscape:connector-curvature="0" />
                <path
                     style="fill:#704515;fill-rule:evenodd"
                     d="M 134.54841,639.17983 C 130.24418,637.37796 127.63583,635.12906 126.71415,632.42855 122.5666,616.34067 118.72782,602.44638 115.19318,590.74569 113.04107,583.54278 114.34524,564.86959 119.11031,534.72613 L 126.71415,491.85892 125.79248,528.81818 C 125.33164,554.35325 125.6404,569.6531 126.71415,574.71772 128.40082,582.81926 131.01839,604.30356 134.54841,639.17983 z"
                     id="path80"
                     inkscape:connector-curvature="0" />
                <polygon
                     style="fill:#704515;fill-rule:evenodd"
                     points="52.25,88.086 49.2,88.672 50.3,79.92 "
                     id="polygon82"
                     transform="matrix(4.6083869,0,0,4.6083869,-115.22617,242.69726)" />
                <path
                     style="fill:#b06d22;fill-rule:evenodd"
                     d="M 170.37862,384.53419 C 162.88538,389.15179 156.01428,393.08735 149.75609,396.34548 144.68686,399.046 136.4655,401.2995 125.10122,403.09677 113.73233,404.89865 102.21136,405.79729 90.53831,405.79729 79.47818,405.79729 71.03101,405.68208 65.19218,405.45627 60.42711,405.23045 53.36246,404.78344 43.989,404.11062 36.4635,403.54378 28.78132,402.70045 20.94706,401.58061 L 11.26945,399.89394 53.43619,400.40086 C 83.69947,400.40086 104.12845,399.83403 114.72774,398.7142 125.32703,397.58514 138.68674,394.55282 154.8161,389.59881 160.60423,387.84301 165.78867,386.15634 170.37862,384.53419 171.1897,384.02727 172.00077,383.51573 172.79802,383.01342 L 175.79348,382.5065 C 174.09759,383.1655 172.2911,383.83832 170.37862,384.53419 z"
                     id="path84"
                     inkscape:connector-curvature="0" />
                <path
                     style="fill:#b06d22;fill-rule:evenodd"
                     d="M 200.21793,415.92652 200.67877,407.31805 205.7526,424.19397 C 206.98304,427.8945 208.937,430.254 211.62369,431.28167 H 211.50848 C 207.66508,430.83004 204.90005,429.7056 203.20877,427.90833 201.37002,425.99124 200.37,421.99577 200.21793,415.92652 z"
                     id="path86"
                     inkscape:connector-curvature="0" />
                <path
                     style="fill:#593711;fill-rule:evenodd"
                     d="M 47.91073,650.82523 C 47.14113,646.54865 46.37614,642.10616 45.60654,637.49316 44.22402,628.37778 43.91526,623.26247 44.68486,622.13341 45.29778,621.01357 45.9153,619.04579 46.52822,616.23007 L 47.21948,612.3498 50.21493,625.85238 C 52.21497,635.41017 53.21038,641.65915 53.21038,644.58086 V 655.38292 L 47.91073,650.82523 z"
                     id="path88"
                     inkscape:connector-curvature="0" />
                <path
                     style="fill:#593711;fill-rule:evenodd"
                     d="M 68.41806,652.6778 C 66.72678,625.23025 64.50093,608.46493 61.73589,602.39569 54.82331,588.33089 51.36702,575.22464 51.36702,563.07693 L 54.82331,478.36095 C 58.20587,544.96136 60.2013,580.68097 60.81422,585.51977 61.11837,587.43226 62.65296,594.51535 65.4226,606.77826 68.03095,618.02734 69.33973,624.66802 69.33973,626.69111 L 68.41806,652.6778 z"
                     id="path90"
                     inkscape:connector-curvature="0" />
                <path
                     style="fill:#593711;fill-rule:evenodd"
                     d="M 129.7096,633.7788 C 128.1704,626.91692 126.63581,619.88452 125.10122,612.68622 122.1795,598.17441 120.87533,590.01756 121.17948,588.21568 121.64493,586.3032 122.71868,583.49208 124.40535,579.77772 L 126.70954,574.71311 129.24416,586.86542 C 130.78336,595.755 131.54835,602.44638 131.54835,606.94417 131.55296,614.15168 130.94004,623.09196 129.7096,633.7788 z"
                     id="path92"
                     inkscape:connector-curvature="0" />
                <path
                     style="fill:#593711;fill-rule:evenodd"
                     d="M 22.10377,400.40086 30.39886,402.42395 26.94257,423.68244 C 24.17754,438.75647 22.10377,448.32348 20.72125,452.37425 19.2097,456.72918 17.71197,465.70171 16.22807,479.28724 L 22.10377,400.40086 z"
                     id="path94"
                     inkscape:connector-curvature="0" />
                <path
                     style="fill:#593711;fill-rule:evenodd"
                     d="M -25.13221,564.7636 -24.44095,576.74541 C -23.98011,585.40917 -23.36719,591.59824 -22.59759,595.30338 -21.52384,601.26663 -21.82799,613.52955 -23.51927,632.09214 -26.43638,618.36375 -28.12766,609.36357 -28.5885,605.0916 -28.89265,602.50629 -28.43181,595.02227 -27.20598,582.64875 L -25.13221,564.7636 z"
                     id="path96"
                     inkscape:connector-curvature="0" />
                <path
                     style="fill:#593711;fill-rule:evenodd"
                     d="M -56.0084,394.1565 -58.54301,390.61265 -44.02659,396.85241 -35.50108,456.08401 C -39.95278,442.36023 -43.33533,433.08355 -45.63953,428.24474 -47.02204,425.31841 -49.17416,418.73764 -52.09127,408.4978 L -56.0084,394.1565 z"
                     id="path98"
                     inkscape:connector-curvature="0" />
                <polygon
                     style="fill:#704515;fill-rule:evenodd"
                     points="11.2,32.097 12.7,46.085 9.05,31.071 "
                     id="polygon100"
                     transform="matrix(4.6083869,0,0,4.6083869,-115.22617,242.69726)" />
                <path
                     style="fill:#593711;fill-rule:evenodd"
                     d="M 154.59489,405.80189 158.74244,450.68758 C 159.35536,453.61391 158.20326,467.05658 155.28615,491.02019 152.98196,476.05676 151.98194,466.04273 152.2907,460.97811 L 154.59489,405.80189 z"
                     id="path102"
                     inkscape:connector-curvature="0" />
                <polygon
                     style="fill:#593711;fill-rule:evenodd"
                     points="46,36.857 47.45,36.381 45.2,49.014 "
                     id="polygon104"
                     transform="matrix(4.6083869,0,0,4.6083869,-115.22617,242.69726)" />
                <path
                     style="fill:#8c571b;fill-rule:evenodd"
                     d="M -24.44095,525.10382 -17.52837,595.29877 C -17.06753,600.70441 -18.75881,617.57572 -22.59759,645.9219 L -21.90633,616.73238 C -21.75426,611.55716 -21.67592,606.99947 -21.67592,603.0639 -21.67592,595.52458 -21.98007,589.33552 -22.59759,584.50132 -23.36719,579.66251 -23.90177,568.29823 -24.21053,550.41308 L -24.44095,525.10382 z"
                     id="path106"
                     inkscape:connector-curvature="0" />
                <path
                     style="fill:#8c571b;fill-rule:evenodd"
                     d="M -44.02659,396.85241 -37.80527,422.50269 C -33.65772,440.95467 -31.43187,453.32358 -31.12311,459.62786 -30.66227,469.75248 -33.8098,491.85892 -40.5703,525.94716 -39.49655,504.46285 -38.34445,490.73447 -37.11401,484.77122 -35.27066,474.19497 -35.04024,463.73393 -36.42275,453.38349 L -44.02659,396.85241 z"
                     id="path108"
                     inkscape:connector-curvature="0" />
                <path
                     style="fill:#8c571b;fill-rule:evenodd"
                     d="M 61.73589,439.88553 V 461.31453 C 61.57921,476.72958 61.27045,487.18601 60.81422,492.70686 60.34877,499.23234 61.50087,517.6198 64.27051,547.88769 66.87885,577.70395 68.87889,595.87021 70.26141,602.39569 71.94808,610.82904 72.79602,626.40999 72.79602,649.13856 71.10935,630.57598 69.64389,619.2163 68.41806,615.05493 66.73139,609.42809 65.34887,604.70449 64.27512,600.87953 62.27508,593.90243 61.12298,588.78712 60.81883,585.52438 60.35338,581.36301 59.51465,566.9065 58.28421,542.15485 57.05377,517.182 56.44086,501.59644 56.44086,495.40737 56.44086,490.23676 57.36254,479.4347 59.20589,463.01041 L 61.73589,439.88553 z"
                     id="path110"
                     inkscape:connector-curvature="0" />
                <polygon
                     style="fill:#593711;fill-rule:evenodd"
                     points="54.75,34.806 57.5,33.341 54.2,45.608 "
                     id="polygon112"
                     transform="matrix(4.6083869,0,0,4.6083869,-115.22617,242.69726)" />
                <path
                     style="fill:#593711;fill-rule:evenodd"
                     d="M 171.41551,628.37778 C 164.655,620.39144 160.42911,613.69545 158.74244,608.29903 157.35993,603.79664 155.51657,589.11893 153.21238,564.25668 150.90819,539.16862 150.60403,528.47716 152.2907,532.19152 153.98198,535.56486 157.66869,552.61128 163.35083,583.32157 166.26794,598.73663 168.95924,613.75536 171.41551,628.37778 z"
                     id="path114"
                     inkscape:connector-curvature="0" />
                <path
                     style="fill:#593711;fill-rule:evenodd"
                     d="M 184.54941,467.7294 C 182.71066,474.02907 178.941,495.23686 173.25886,531.35279 L 174.18054,469.07966 187.08402,439.54911 186.8536,450.18066 C 186.39277,457.94119 185.62317,463.79384 184.54941,467.7294 z"
                     id="path116"
                     inkscape:connector-curvature="0" />
                <path
                     style="fill:#8c571b;fill-rule:evenodd"
                     d="M 123.48828,538.43588 V 527.30202 L 123.7187,535.90588 C 124.79246,559.63907 126.64042,573.47806 129.24877,577.41823 132.01841,581.35379 133.47466,591.25722 133.62673,607.11468 133.77881,615.10101 133.62673,622.64033 133.16589,629.72803 131.47462,609.14237 129.3225,594.40014 126.71415,585.51517 125.17956,579.89293 124.10581,564.20138 123.48828,538.43588 z"
                     id="path118"
                     inkscape:connector-curvature="0" />
                <path
                     style="fill:#8c571b;fill-rule:evenodd"
                     d="M 152.2907,526.961 165.19419,586.87003 171.42012,628.38238 C 167.27257,609.59399 164.35546,597.9486 162.66418,593.45081 161.59043,590.75029 159.51204,578.8284 156.44286,557.6759 L 152.2907,526.961 z"
                     id="path120"
                     inkscape:connector-curvature="0" />
                <path
                     style="fill:#8c571b;fill-rule:evenodd"
                     d="M 156.20783,488.48558 157.35993,469.07966 C 157.66408,466.94137 157.59035,461.71085 157.1249,453.3881 156.66406,444.95014 156.12949,439.43851 155.51196,436.8486 155.05113,434.59971 155.66404,428.07423 157.35532,417.27678 L 160.12035,401.74651 C 160.12035,419.29986 159.42909,429.64569 158.04658,432.79783 157.28158,434.82091 157.43366,438.87168 158.51202,444.95014 159.12494,448.21288 160.04662,452.42956 161.27706,457.60477 162.19873,461.20392 160.50746,471.49906 156.20783,488.48558 z"
                     id="path122"
                     inkscape:connector-curvature="0" />
                <polygon
                     style="fill:#8c571b;fill-rule:evenodd"
                     points="47.45,36.381 48.1,36.125 45.85,47.806 "
                     id="polygon124"
                     transform="matrix(4.6083869,0,0,4.6083869,-115.22617,242.69726)" />
                <path
                     style="fill:#8c571b;fill-rule:evenodd"
                     d="M 45.1457,609.64929 56.43625,632.42855 C 58.89252,637.82958 59.0446,643.2813 56.89709,648.79754 55.98002,651.49805 54.74958,653.69625 53.21038,655.38292 52.90622,646.38274 52.05828,639.17983 50.67577,633.7788 L 45.1457,609.64929 z"
                     id="path126"
                     inkscape:connector-curvature="0" />
                <path
                     style="fill:#593711;fill-rule:evenodd"
                     d="M -20.06298,492.53635 C -21.90633,486.34728 -21.82799,479.71121 -19.83256,472.62351 L -16.37627,463.68324 -6.69865,573.37207 C -12.68956,529.3804 -17.14587,502.43516 -20.06298,492.53635 z"
                     id="path128"
                     inkscape:connector-curvature="0" />
                <polygon
                     style="fill:#593711;fill-rule:evenodd"
                     points="23.7,87.793 23.8,79.627 25.35,88.086 "
                     id="polygon130"
                     transform="matrix(4.6083869,0,0,4.6083869,-115.22617,242.69726)" />
                <polygon
                     style="fill:#593711;fill-rule:evenodd"
                     points="11.5,83.838 14.25,76.697 14.1,85.156 "
                     id="polygon132"
                     transform="matrix(4.6083869,0,0,4.6083869,-115.22617,242.69726)" />
                <polygon
                     style="fill:#593711;fill-rule:evenodd"
                     points="51.7,87.939 50.45,88.086 50.6,81.091 "
                     id="polygon134"
                     transform="matrix(4.6083869,0,0,4.6083869,-115.22617,242.69726)" />
                <path
                     style="fill:#593711;fill-rule:evenodd"
                     d="M 79.47818,654.03267 C 80.39986,634.79265 81.09112,623.37768 81.55196,619.76931 81.70404,617.52502 81.6303,614.03647 81.32154,609.30827 L 80.85609,602.89339 87.30783,641.87574 83.39531,654.03267 H 79.47818 z"
                     id="path136"
                     inkscape:connector-curvature="0" />
                <path
                     id="path3675"
                     d="M 201.48523,404.73783 C 202.82627,401.47065 205.47609,400.42772 209.4347,401.61578 207.2365,402.06131 204.58207,403.10086 201.48523,404.73783 200.47599,407.0262 200.13036,410.42838 200.44834,414.94775 201.21794,425.85972 205.51757,431.93505 213.35183,433.17374 203.67421,441.1628 198.14415,445.94206 196.76163,447.51827 191.23157,453.70498 187.54486,461.75141 185.7015,471.65082 181.09312,498.65228 178.78892,517.04703 178.78892,526.83506 178.63685,538.75958 180.09771,558.16688 183.16689,585.05696 184.70148,599.68163 184.9319,608.90938 183.85815,612.73346 182.0148,619.37244 175.87182,625.50177 165.4246,631.1282 158.20787,635.06704 148.91275,639.22864 137.54386,643.61638 131.24419,645.97901 121.87534,649.41157 109.4327,653.91069 109.58478,649.18543 108.97186,644.18004 107.58934,638.89112 106.05475,632.92718 104.90265,628.14454 104.13305,624.5466 103.21138,619.93272 102.59846,613.74601 102.2897,605.98309 101.82886,596.4212 101.44176,590.17374 101.1376,587.25083 98.67672,560.9244 96.06838,541.80062 93.30334,529.87272 92.0729,524.80995 91.38165,516.48675 91.22957,504.89637 91.22957,492.07068 91.15123,483.52134 90.99915,479.24498 91.76875,481.60761 93.84252,485.65783 97.22047,491.39564 99.96707,495.92176 101.65835,499.71884 102.2897,502.78688 99.51084,486.99778 97.81956,472.00522 97.22047,457.81257 96.2988,435.08747 98.91175,420.57081 105.05473,414.27272 L 105.97641,406.67856 C 108.89352,406.1149 113.19775,406.1149 118.87989,406.67856 123.17952,407.01607 127.40541,406.28366 131.55296,404.48469 136.16134,402.57433 143.53476,398.18322 153.67321,391.32147 163.04207,385.02001 170.18507,381.08454 175.10221,379.50833 175.10221,380.29475 174.64138,387.94629 173.7197,402.45958 173.10678,411.12367 173.3372,418.60645 174.41096,424.90454 177.0193,421.4146 182.32356,416.97286 190.30989,411.57257 194.50813,408.66991 198.23632,406.38829 201.48523,404.73783 z"
                     style="opacity:0.23829998;fill:#1c1105;fill-rule:evenodd"
                     inkscape:connector-curvature="0" />
                <polygon
                     id="polygon142"
                     points="62.85,31.181 62.8,30.156 63.35,31.035 "
                     style="fill:#1c1105;fill-rule:evenodd"
                     transform="matrix(4.6083869,0,0,4.6083869,-115.22617,242.69726)" />
                <path
                     id="path3687"
                     d="M 157.59127,392.91558 C 161.27798,390.77909 166.88638,388.35908 174.41188,385.65894 174.72064,389.82054 175.10314,395.10945 175.56398,401.5223 175.87274,406.92259 175.87274,412.15412 175.56398,417.2169 175.4119,420.4807 173.72062,427.62258 170.49475,438.64931 167.8864,447.65092 167.1168,454.7928 168.19056,460.08172 168.6514,459.63282 171.26435,456.48377 176.02482,450.6312 179.25069,446.58098 182.47656,444.0496 185.70243,443.03704 183.85907,445.73719 180.94197,449.95617 176.94649,455.69398 179.094,454.45529 183.78073,450.1823 191.00207,442.86828 196.68422,437.01909 201.67971,433.92405 205.97933,433.58653 204.44474,436.73558 201.14053,440.95456 196.0713,446.24347 191.00207,451.41762 187.62413,455.74798 185.93285,459.23792 184.24157,463.28814 182.39822,473.97734 180.40278,491.30216 178.55943,507.72917 177.78983,518.80989 178.09859,524.54771 178.40274,529.38772 179.48111,544.4039 181.32446,569.60639 183.01574,591.20756 183.93742,606.00099 184.08949,613.99005 181.63322,615.0026 178.55943,617.59137 174.87272,621.75297 171.49477,625.80319 168.34263,628.22319 165.42553,629.00961 L 165.19511,628.50333 C 157.36085,635.36508 147.76158,641.16027 136.39269,645.88552 124.87172,650.61078 116.19413,652.24099 110.3553,650.77954 111.1249,646.05428 114.27243,639.13516 119.80249,630.02216 120.87625,632.15866 122.41545,634.01838 124.41088,635.59122 125.64132,631.541 127.25426,623.2718 129.24969,610.78362 134.16223,617.30785 139.3098,621.63821 144.68778,623.77808 146.37906,619.50172 146.4528,614.21618 144.9182,607.91472 143.99653,603.97588 142.00109,598.69034 138.9273,592.05136 139.38814,594.64012 139.00564,597.11413 137.7752,599.47676 136.08393,578.32449 134.85809,560.55078 134.08849,546.14887 132.70598,518.92465 133.62765,501.65384 136.85353,494.33982 134.08849,475.66156 135.47101,465.08711 141.00107,462.6131 141.30984,463.28814 142.00109,464.41545 143.07485,465.98829 144.1486,467.33836 144.83986,468.40829 145.14862,469.19471 144.37902,456.81791 143.76611,446.30084 143.30527,437.63675 142.53567,421.20974 143.15319,410.63529 145.14862,405.91003 147.14405,400.95864 151.2916,396.62828 157.59127,392.91558 z"
                     style="opacity:0.25;fill:#1c1105;fill-rule:evenodd"
                     inkscape:connector-curvature="0" />
                <path
                     style="fill:#8c6a44;fill-rule:evenodd"
                     d="M 76.48273,401.2442 C 62.65757,400.67737 52.82788,399.55753 46.99366,397.87086 L 64.96177,400.40086 C 66.1922,398.59899 71.49185,397.87086 80.8607,398.20727 85.77324,398.31787 92.15125,398.54368 99.98551,398.8801 103.21138,398.65889 108.81518,397.58514 116.80151,395.67727 118.18864,395.34086 124.63577,394.77402 136.15674,393.9906 138.63144,393.79244 140.89416,393.53898 142.95872,393.23021 137.85723,394.72333 133.59447,395.87543 130.17044,396.69111 121.72327,398.8294 113.65859,400.29026 105.97641,401.0783 98.75968,401.74651 88.92538,401.80181 76.48273,401.2442 z"
                     id="path146"
                     inkscape:connector-curvature="0" />
                <path
                     style="fill:#99744a;fill-rule:evenodd"
                     d="M 211.27806,427.73321 C 209.85406,427.06038 208.62823,425.82073 207.59135,424.01885 211.12137,425.10182 214.2689,422.85293 217.03854,417.27217 218.42566,420.75611 218.72982,423.68244 217.96022,426.04193 216.88185,428.85766 214.656,429.42449 211.27806,427.73321 z M 209.4347,405.29036 212.54536,408.41485 C 209.89093,406.12909 208.16279,407.3411 207.36093,412.04165 206.83096,414.46105 206.5222,417.64084 206.43925,421.5764 205.79408,419.83904 205.2595,417.7837 204.82631,415.41499 203.4438,408.5531 204.97839,405.17976 209.4347,405.29036 z"
                     id="path148"
                     inkscape:connector-curvature="0" />
                <path
                     style="fill:#99744a;fill-rule:evenodd"
                     d="M 208.97386,412.54857 C 209.6006,411.11076 210.43933,410.49784 211.51308,410.69139 212.43015,410.80199 213.19975,411.59003 213.81728,413.0555 215.19979,417.21687 213.43017,418.79294 208.51763,417.77909 207.74803,416.31823 207.74803,414.85277 208.51763,413.39191 208.64667,413.06932 208.80335,412.7836 208.97386,412.54857 z"
                     id="path150"
                     inkscape:connector-curvature="0" />
                <path
                     style="fill:#99744a;fill-rule:evenodd"
                     d="M 204.36548,403.26728 203.67422,403.94011 C 204.59589,399.21651 207.36093,398.53908 211.96931,401.91702 216.5777,405.17976 218.4994,408.5531 217.7298,412.04165 215.57768,404.61754 211.12137,401.69121 204.36548,403.26728 z"
                     id="path152"
                     inkscape:connector-curvature="0" />
                <path
                     inkscape:connector-curvature="0"
                     id="path154"
                     d="M -53.93463,490.34276 -53.24337,488.98789 -57.62133,578.76849 C -59.00385,588.10508 -60.30802,604.13766 -61.53846,626.86622 L -73.05943,625.17955 C -75.5157,615.39134 -78.51115,607.79672 -82.04579,602.4003 -84.1979,599.13756 -87.19335,595.98081 -91.03214,592.94849 L -96.10137,589.40004 C -96.87097,587.94379 -96.40552,585.80089 -94.71885,582.98977 -93.6451,581.18789 -92.33631,580.05884 -90.80172,579.61643 L -88.95837,579.27541 -77.4374,587.21105 C -76.6678,586.98524 -75.98115,586.36311 -75.36363,585.35848 -74.28987,583.55199 -74.13319,581.0819 -74.90279,577.93437 -75.82446,574.77762 -73.05943,560.27042 -66.60769,534.39433 -60.30802,509.18184 -56.08674,494.50874 -53.93463,490.34276 z"
                     style="fill:#7e4e18;fill-rule:evenodd" />
                <path
                     inkscape:connector-curvature="0"
                     id="path156"
                     d="M -61.53846,594.46005 -64.76433,629.89393 -73.05943,625.17495 C -74.75071,618.19785 -77.28532,612.2945 -80.66327,607.4557 -82.81539,604.52476 -86.04126,600.6445 -90.34088,595.8103 L -96.10137,589.39543 C -92.26258,589.05902 -89.64963,588.21568 -88.26711,586.86542 -87.49751,585.96679 -86.11499,586.4691 -84.11956,588.38158 -83.50665,589.05441 -81.50661,591.47842 -78.12866,595.63979 -75.21155,599.34954 -71.82899,604.29895 -67.99021,610.48802 L -61.53846,594.46005 z"
                     style="fill:#704515;fill-rule:evenodd" />
                <path
                     inkscape:connector-curvature="0"
                     id="path158"
                     d="M -58.08217,553.45923 C -60.99928,567.51942 -63.46016,575.95737 -65.45559,578.76849 -68.3727,583.27088 -72.36817,586.07739 -77.4374,587.20644 -77.4374,582.48285 -77.0549,578.43208 -76.2853,575.05413 L -62.22972,520.55073 V 523.58305 C -62.3818,525.94716 -62.99932,528.03015 -64.07308,529.82742 -65.14683,531.62469 -65.99477,538.71239 -66.60769,551.08591 -66.91184,557.27497 -67.14687,563.28892 -67.29895,569.14157 L -54.39546,533.20076 -58.08217,553.45923 z"
                     style="fill:#704515;fill-rule:evenodd" />
                <path
                     inkscape:connector-curvature="0"
                     id="path160"
                     d="M -60.15595,424.86679 -53.24337,442.07912 C -51.86085,445.00544 -49.70873,454.45264 -46.79163,470.42531 L -57.62133,446.80271 C -59.31261,443.65058 -60.23429,439.03758 -60.38637,432.96834 L -60.15595,424.86679 z"
                     style="fill:#593711;fill-rule:evenodd" />
                <path
                     inkscape:connector-curvature="0"
                     id="path162"
                     d="M -56.69966,455.07477 -48.17414,483.92788 C -47.56123,486.633 -48.0958,492.92806 -49.78708,502.83149 -51.47835,512.73491 -53.24337,519.93321 -55.08672,524.4356 -57.69507,530.28826 -61.30804,544.62956 -65.91643,567.46411 -65.14683,547.44067 -64.07308,536.0257 -62.69056,533.20997 -61.30804,530.05784 -59.15593,522.74433 -56.23882,511.26944 -52.86087,498.44891 -51.40001,490.45336 -51.86085,487.30583 L -56.69966,455.07477 z"
                     style="fill:#8c571b;fill-rule:evenodd" />
                <polygon
                     id="polygon164"
                     points="5.7,73.035 8.2,74.757 8.6,76.514 5.7,74.207 "
                     style="fill:#8c571b;fill-rule:evenodd"
                     transform="matrix(4.6083869,0,0,4.6083869,-115.22617,242.69726)" />
                <path
                     inkscape:connector-curvature="0"
                     id="path166"
                     d="M -54.39546,567.45951 -54.8563,573.53797 C -55.16506,577.92515 -55.00838,581.07729 -54.39546,582.98977 -53.62586,586.14191 -55.39548,591.75953 -59.69511,599.86108 L -62.69056,585.17875 C -63.30348,582.81465 -62.3818,579.2155 -59.92553,574.3767 -57.46926,569.76831 -55.6259,567.45951 -54.39546,567.45951 z"
                     style="fill:#704515;fill-rule:evenodd" />
                <path
                     inkscape:connector-curvature="0"
                     id="path168"
                     d="M -56.46924,570.33053 -55.08672,574.71772 C -54.16504,578.09105 -53.93463,580.84687 -54.39546,582.98977 L -57.62133,596.14672 C -59.31261,591.64432 -59.77345,587.98987 -59.00385,585.17875 -58.39094,583.37687 -57.77341,580.39986 -57.1605,576.23848 L -56.46924,570.33053 z"
                     style="fill:#593711;fill-rule:evenodd" />
                <path
                     inkscape:connector-curvature="0"
                     id="path170"
                     d="M 73.94812,464.52196 78.32609,483.92788 C 79.24777,488.43488 78.02193,501.08952 74.63938,521.89638 73.25686,502.99739 72.5656,491.5778 72.5656,487.64224 L 73.94812,464.52196 z"
                     style="fill:#593711;fill-rule:evenodd" />
                <polygon
                     id="polygon172"
                     points="42.15,35.393 39.8,41.251 40.9,35.319 "
                     style="fill:#593711;fill-rule:evenodd"
                     transform="matrix(4.6083869,0,0,4.6083869,-115.22617,242.69726)" />
                <path
                     inkscape:connector-curvature="0"
                     id="path174"
                     d="M 88.69496,567.45951 94.91628,582.98977 C 96.60756,586.92533 96.99006,592.66277 96.06838,600.19749 89.77332,594.34484 86.00827,589.62124 84.78244,586.02209 83.86076,583.32157 83.9345,579.55652 85.01286,574.71772 86.08661,570.10472 87.31244,567.68532 88.69496,567.45951 z"
                     style="fill:#593711;fill-rule:evenodd" />
                <path
                     inkscape:connector-curvature="0"
                     id="path176"
                     d="M 88.69496,567.45951 94.91628,582.98977 C 95.83796,585.79628 96.22506,591.53372 96.06838,600.19749 93.61211,595.47389 92.38167,591.1374 92.38167,587.20644 92.38167,584.73174 91.76875,580.68097 90.54292,575.05413 L 88.69496,567.45951 z"
                     style="fill:#8c571b;fill-rule:evenodd" />
                <polygon
                     id="polygon178"
                     points="28.85,88.415 31.35,84.644 30.9,88.672 "
                     style="fill:#593711;fill-rule:evenodd"
                     transform="matrix(4.6083869,0,0,4.6083869,-115.22617,242.69726)" />
                <polygon
                     id="polygon180"
                     points="36.75,35.136 34.65,37.956 34.55,35.026 "
                     style="fill:#593711;fill-rule:evenodd"
                     transform="matrix(4.6083869,0,0,4.6083869,-115.22617,242.69726)" />
                <path
                     inkscape:connector-curvature="0"
                     id="path182"
                     d="M -11.07662,424.02346 -9.23327,419.80678 -4.62488,430.77474 -3.47278,437.69193 C -2.39903,442.86715 -1.32067,447.02853 -0.24691,450.18066 1.44437,455.24528 2.97896,465.1994 4.36148,480.04762 2.20936,475.88625 1.1356,472.67881 1.1356,470.42992 1.1356,468.96906 -0.32525,464.40675 -3.24236,456.76144 -5.85071,450.12536 -7.85075,445.39716 -9.23327,442.58604 -10.00287,440.78416 -10.53744,437.18501 -10.8462,431.78398 L -11.07662,424.02346 z"
                     style="fill:#593711;fill-rule:evenodd" />
                <path
                     inkscape:connector-curvature="0"
                     id="path184"
                     d="M 52.2887,400.73728 C 51.05826,401.07369 40.07648,401.07369 19.33873,400.73728 -2.01192,400.51147 -15.30252,400.11514 -20.52382,399.55753 -27.74055,398.65889 -39.26152,395.95377 -55.08672,391.45599 -58.31259,390.66795 -62.15138,388.81077 -66.60769,385.88905 L -72.36817,381.83367 -57.39092,387.57112 C -45.25703,391.62189 -34.27064,394.04129 -24.44095,394.82932 -8.62035,396.29479 16.9562,398.26257 52.2887,400.73728 z"
                     style="fill:#b06d22;fill-rule:evenodd" />
                <polygon
                     id="polygon186"
                     points="28,34.404 26.9,37.333 25.95,34.477 "
                     style="fill:#593711;fill-rule:evenodd"
                     transform="matrix(4.6083869,0,0,4.6083869,-115.22617,242.69726)" />
                <path
                     inkscape:connector-curvature="0"
                     id="path188"
                     d="M 35.69851,465.70632 34.08557,470.76633 C 33.01182,474.70189 32.62932,478.07523 32.93348,480.89095 33.54639,485.39335 33.01182,492.36123 31.32054,501.81764 L 27.86425,484.26429 C 27.5601,481.90019 28.78593,478.13514 31.55096,472.95531 L 35.69851,465.70632 z"
                     style="fill:#593711;fill-rule:evenodd" />
                <path
                     id="path3608"
                     d="M -34.83793,421.02074 C -32.99457,427.88249 -30.84246,436.37782 -28.38619,446.50337 -25.77784,454.94132 -23.93449,467.93578 -22.85612,485.48673 -21.93445,501.35009 -21.93445,514.68206 -22.85612,525.48264 -22.70405,521.99608 -23.31696,517.21345 -24.69948,511.13812 -26.39076,504.27637 -28.23411,500.28015 -30.22954,499.15622 -35.14208,508.04307 -36.75963,528.24017 -35.06835,559.74075 -33.68583,587.30586 -31.22956,607.61434 -27.69493,620.66279 -24.9299,631.352 -23.54738,637.14381 -23.54738,638.04499 -23.69946,642.20659 -27.61659,643.27652 -35.29877,641.25141 -46.51558,638.32513 -53.58024,636.35739 -56.49735,635.34484 -65.71412,632.19242 -71.93545,628.76323 -75.16132,625.05053 L -73.7788,624.88177 C -76.85259,617.11885 -79.15679,611.9447 -80.69138,609.35593 -82.38266,606.88192 -85.45184,603.11184 -89.90815,598.04907 L -96.12948,591.29871 C -96.28155,589.49973 -95.82072,587.35987 -94.74696,584.88586 -94.13405,583.4244 -92.98195,582.35447 -91.29067,581.67943 L -88.98648,581.17316 -77.46551,589.10484 C -75.00924,583.70454 -73.54838,578.36163 -73.08754,573.07272 -72.6267,569.80892 -69.63125,556.25418 -64.10119,532.40177 L -56.03651,497.63739 C -55.88443,491.45068 -57.34529,483.35024 -60.41448,473.33607 -63.94911,462.19797 -65.94454,454.15153 -66.40538,449.20351 -68.86165,420.62584 -71.39626,401.7822 -74.00922,392.6692 L -74.23964,386.93139 C -73.62672,384.7949 -69.32249,385.46656 -61.33615,388.9565 -57.34068,390.75548 -53.42355,392.72658 -49.58477,394.86307 L -48.66309,394.3568 C -47.58934,394.47155 -45.81972,395.70687 -43.36345,398.0695 -41.05925,400.20599 -38.21588,407.85753 -34.83793,421.02074 z"
                     style="opacity:0.25;fill:#1c1105;fill-rule:evenodd"
                     inkscape:connector-curvature="0" />
                <polygon
                     style="fill:#593711;fill-rule:evenodd"
                     points="24.15,50.369 21.95,41.507 17.7,32.243 23,34.477 "
                     id="polygon194"
                     transform="matrix(4.6083869,0,0,4.6083869,-115.22617,242.69726)" />
                <path
                     inkscape:connector-curvature="0"
                     id="path198"
                     d="M -115.22617,598.67672 -87.34543,594.12363 -80.66327,596.48774 -82.73704,599.18825 C -85.04124,601.10073 -88.26711,602.45099 -92.41466,603.23902 -97.17973,604.25287 -104.01397,603.29893 -112.92198,600.368 L -115.22617,598.67672 z"
                     style="fill:#3f5511;fill-rule:evenodd" />
                <path
                     inkscape:connector-curvature="0"
                     id="path200"
                     d="M -81.12411,595.6444 C -84.50206,598.90714 -88.49753,600.98552 -93.10592,601.88416 -97.86638,602.78279 -105.2398,601.71826 -115.22617,598.67672 -105.70064,593.5015 -98.0968,590.51987 -92.41466,589.73645 -88.88002,589.17423 -85.96292,590.02217 -83.65872,592.27106 -82.42828,593.2803 -81.58495,594.40014 -81.12411,595.6444 z"
                     style="fill:#586715;fill-rule:evenodd" />
                <path
                     inkscape:connector-curvature="0"
                     id="path202"
                     d="M -84.34998,591.42312 C -82.96746,591.98534 -82.04579,592.71347 -81.58495,593.61671 -80.97203,594.63516 -81.27619,595.6997 -82.50663,596.82415 -84.34998,598.51082 -88.72795,599.97629 -95.64053,601.21133 -91.18422,598.96244 -88.64961,597.10526 -88.03669,595.6444 -87.72793,594.63056 -91.26256,594.79646 -98.63598,596.14672 -102.32269,596.81954 -106.0094,597.55688 -109.69611,598.34492 -105.08772,596.32183 -101.24894,594.97158 -98.17514,594.29414 -96.79263,593.95773 -94.79719,593.73192 -92.18424,593.6121 -90.03212,593.3909 -88.49753,593.10979 -87.57585,592.76877 -86.04126,591.98073 -87.26709,591.0821 -91.26256,590.06825 L -92.41466,589.73184 -84.34998,591.42312 z"
                     style="fill:#3f5511;fill-rule:evenodd" />
                <path
                     inkscape:connector-curvature="0"
                     id="path204"
                     d="M -105.54856,598.51082 C -102.94021,598.0592 -100.47933,597.61218 -98.17514,597.16056 -93.41468,596.48774 -91.41925,596.54304 -92.18424,597.33107 -93.10592,598.22971 -94.33635,598.96244 -95.87095,599.52466 -97.56223,600.08689 -98.8664,600.25279 -99.78808,600.03159 L -105.54856,598.51082 z"
                     style="fill:#668510;fill-rule:evenodd" />
                <path
                     inkscape:connector-curvature="0"
                     id="path206"
                     d="M -103.93563,594.96697 C -102.86187,594.17893 -101.63143,593.3909 -100.24891,592.60287 -97.63596,591.1374 -95.71887,590.57978 -94.48843,590.9162 -92.493,591.47842 -91.95382,591.87013 -92.8755,592.09594 -94.71885,592.32175 -96.17971,592.60287 -97.25346,592.94389 -99.2489,593.73192 -101.47935,594.40014 -103.93563,594.96697 z"
                     style="fill:#668510;fill-rule:evenodd" />
                <path
                     inkscape:connector-curvature="0"
                     id="path210"
                     d="M 224.41196,476.50377 221.87735,478.35634 C 212.04305,481.51309 204.51755,482.57762 199.29625,481.56378 194.68786,480.66514 191.15323,479.14438 188.69696,477.00608 L 186.39277,474.13967 193.76619,471.43915 224.41196,476.50377 z"
                     style="fill:#3f5511;fill-rule:evenodd" />
                <path
                     inkscape:connector-curvature="0"
                     id="path212"
                     d="M 187.08402,473.13043 189.62325,469.41607 C 192.07952,466.94137 195.30539,466.04273 199.30086,466.71556 205.44384,467.61419 213.81728,470.87693 224.41657,476.50377 213.35644,479.7619 205.29176,480.94625 200.22254,480.04762 196.99666,479.37479 193.84453,478.02454 190.77534,475.99685 L 187.08402,473.13043 z"
                     style="fill:#586715;fill-rule:evenodd" />
                <path
                     inkscape:connector-curvature="0"
                     id="path214"
                     d="M 197.91373,467.05658 C 196.83998,467.39299 195.83996,467.7294 194.91828,468.07042 193.23161,468.85846 192.91824,469.47598 193.9966,469.9276 194.91828,470.37461 196.53583,470.71564 198.84002,470.93684 201.75713,471.16265 203.98298,471.44376 205.51757,471.78478 209.05221,472.45761 213.2781,473.92307 218.19064,476.17197 214.19977,475.27333 210.2043,474.42539 206.20883,473.63735 198.2225,472.2917 194.38371,472.12119 194.68786,473.13504 195.1487,474.71111 197.91373,476.78949 202.98296,479.37479 195.30539,477.91394 190.38824,476.28257 188.23612,474.48069 186.8536,473.24103 186.54945,472.00598 187.31905,470.76633 187.93197,469.86769 189.00572,469.13496 190.54031,468.56813 192.23159,468.01051 195.1487,467.38838 199.29625,466.71556 L 197.91373,467.05658 z"
                     style="fill:#3f5511;fill-rule:evenodd" />
                <path
                     inkscape:connector-curvature="0"
                     id="path216"
                     d="M 213.81267,476.33326 207.13051,477.85403 C 206.20883,478.07523 204.90466,477.90933 203.20877,477.35171 201.5221,476.78488 200.13958,475.99685 199.06583,474.98761 198.29623,474.19497 200.52208,474.19497 205.74799,474.98761 208.36095,475.32402 211.04764,475.77564 213.81267,476.33326 z"
                     style="fill:#668510;fill-rule:evenodd" />
                <path
                     inkscape:connector-curvature="0"
                     id="path218"
                     d="M 211.96931,472.2871 C 209.20428,471.72026 206.7434,471.04283 204.59589,470.2594 202.13502,469.81239 200.60042,469.47137 199.98751,469.24556 198.91375,469.02436 199.44833,468.62804 201.60044,468.06581 203.75256,467.39299 207.20885,468.79855 211.96931,472.2871 z"
                     style="fill:#668510;fill-rule:evenodd" />
                <path
                     inkscape:connector-curvature="0"
                     id="path222"
                     d="M 228.55951,450.35117 228.32909,453.554 C 226.94657,455.80289 225.10322,458.167 222.79902,460.6417 218.19064,465.48051 213.73893,468.51743 209.43931,469.75709 203.60048,471.44376 198.07042,471.95068 192.84451,471.27325 L 186.62319,469.75709 190.54031,462.66939 228.55951,450.35117 z"
                     style="fill:#3f5511;fill-rule:evenodd" />
                <path
                     inkscape:connector-curvature="0"
                     id="path224"
                     d="M 185.93193,468.40683 C 184.70149,466.83076 183.9365,465.03349 183.62773,463.0058 183.01482,459.07024 185.08859,456.31443 189.85366,454.73836 197.37916,452.03784 210.28725,450.57698 228.55951,450.35117 221.64693,460.02879 214.89103,465.87683 208.28721,467.89991 204.29174,469.14418 199.37459,469.58658 193.54037,469.25017 L 185.93193,468.40683 z"
                     style="fill:#586715;fill-rule:evenodd" />
                <path
                     inkscape:connector-curvature="0"
                     id="path226"
                     d="M 189.84906,454.73836 187.54486,458.61862 C 186.77526,460.30529 187.24071,461.09332 188.92738,460.98272 190.46197,460.87212 192.46201,460.3099 194.91828,459.29605 198.45291,457.83519 201.14421,456.82135 202.98296,456.26373 207.43927,455.01947 213.65598,454.06553 221.64693,453.39271 216.27355,454.85357 211.04764,456.36973 205.98302,457.94579 195.99664,461.09793 191.8537,463.06571 193.54037,463.85375 196.30541,465.31 201.90921,465.87683 210.36099,465.54042 200.52669,468.46213 193.46203,469.58658 189.1578,468.91376 186.08861,468.57274 184.08857,467.5635 183.16689,465.87683 182.54937,464.52196 182.63232,463.1164 183.39731,461.65555 184.01484,460.6417 185.24067,459.18084 187.08402,457.26836 188.15778,456.36512 189.07946,455.52639 189.84906,454.73836 z"
                     style="fill:#3f5511;fill-rule:evenodd" />
                <path
                     inkscape:connector-curvature="0"
                     id="path228"
                     d="M 217.26896,456.08401 212.89099,461.65555 C 212.12139,462.44358 210.50846,463.0058 208.05219,463.34222 205.43923,463.79384 202.97835,463.79384 200.67416,463.34222 198.83541,462.89059 201.06587,461.54034 207.36093,459.29144 210.43472,458.167 213.73893,457.09785 217.26896,456.08401 z"
                     style="fill:#668510;fill-rule:evenodd" />
                <path
                     inkscape:connector-curvature="0"
                     id="path230"
                     d="M 210.35638,453.21759 C 206.66506,454.23143 203.20877,454.96417 199.98751,455.41579 196.91371,456.31443 194.91367,456.87204 193.992,457.10246 192.76156,457.43887 192.76156,456.65084 193.992,454.73836 194.91367,453.4987 197.91373,452.88118 202.97835,452.88118 205.59131,452.87657 208.05219,452.99178 210.35638,453.21759 z"
                     style="fill:#668510;fill-rule:evenodd" />
            </g>
            <path
                 id="use4121"
                 d="M 856.28125,337.375 C 854.1462,337.38454 851.99198,337.43044 849.8125,337.46875 815.71044,337.77751 786.90903,341.52865 763.40625,348.75 739.28089,356.15099 727.13736,365.4733 726.96875,376.71875 726.83988,376.91631 726.74934,377.07697 726.65625,377.1875 726.21003,376.0267 725.8745,374.77291 725.625,373.40625 L 723.78125,388.15625 C 723.78125,398.14262 726.46576,403.9029 731.84375,405.4375 733.94441,405.4375 737.75494,406.08958 743.21875,407.40625 744.63338,407.8333 745.99845,408.34429 747.3125,408.90625 753.6258,413.00597 761.21341,416.5384 770.09375,419.5 772.23692,420.11036 774.45599,420.79684 776.75,421.5625 776.75958,421.5657 776.77167,421.5593 776.78125,421.5625 776.80276,421.58048 776.82195,421.60635 776.84375,421.625 779.56598,424.78998 782.97709,429.75342 787.03125,436.375 787.48149,437.19973 787.91796,438.04383 788.34375,438.875 790.13119,443.14309 792.38674,448.27127 795.21875,454.5 L 795.4375,457.03125 795.90625,456.125 C 796.2611,456.59966 796.55443,457.04838 796.8125,457.5 L 797.0625,457.96875 797.0625,458.1875 813.25,428.75 817.125,428.75 C 828.9727,429.59185 841.64659,429.82315 855.125,429.40625 879.54945,428.17581 901.42603,424.94005 920.78125,419.71875 920.93333,419.56667 921.15999,419.5 921.46875,419.5 931.60259,417.1958 939.75866,414.73335 945.90625,412.125 949.89712,410.43372 953.75079,407.97587 957.4375,404.75 970.03222,396.91574 976.47249,388.14637 976.78125,378.46875 977.08541,364.79567 963.95156,354.213 937.375,346.6875 915.34114,340.34953 888.30704,337.23192 856.28125,337.375 z"
                 style="fill:#c49764;fill-rule:evenodd"
                 inkscape:connector-curvature="0" />
            <g
                 transform="translate(380,0)"
                 id="g4612">
                <path
                     style="fill:#c49764;fill-rule:evenodd"
                     d="M 540.32831,367.41365 C 540.17163,366.03114 539.71079,364.87904 538.94119,363.95736 L 536.41118,366.95282 C 537.95039,366.80074 539.25456,366.95282 540.32831,367.41365 540.63247,370.33076 539.71079,373.78705 537.55867,377.78252 535.1024,381.778 532.10234,385.46471 528.57232,388.84265 533.79823,391.29892 537.94578,388.07305 541.01496,379.16504 543.47584,372.7133 543.24542,368.79617 540.32831,367.41365 z M 449.54309,421.10136 C 443.86095,420.48384 438.1742,419.6405 432.49206,418.56675 L 432.72247,417.87549 C 448.54768,421.25344 465.44202,422.7143 483.41473,422.25346 502.92204,421.63594 522.05145,418.64048 540.78915,413.26711 555.07515,409.11956 566.13528,403.20239 573.96954,395.52482 579.65168,389.99475 581.56877,383.9255 579.73002,377.32169 578.03875,371.33078 574.12162,366.87447 567.97864,363.95736 L 568.66529,365.33988 C 572.19992,367.18323 574.42577,371.10036 575.34745,377.09127 576.26912,383.08217 575.42579,387.99932 572.81283,391.83811 571.27363,393.99022 567.43485,396.21607 561.29187,398.52027 560.52227,398.82903 556.37933,400.1332 548.84922,402.4374 527.34188,409.81082 504.45202,414.34086 480.18425,416.03214 471.12416,416.80174 460.52487,416.18882 448.39099,414.18878 436.71334,412.19335 427.34449,410.58042 420.27983,409.34998 420.74067,408.73706 421.04943,408.11954 421.20151,407.50662 L 415.44102,407.04578 C 415.13687,407.50662 414.98018,408.0458 414.98018,408.65872 404.68966,406.96744 393.09035,402.28532 380.18686,394.60314 362.82707,384.31261 357.22327,374.17416 363.36625,364.18778 359.37078,365.41822 357.60577,368.64409 358.0666,373.8654 358.67952,378.16963 360.3708,382.39091 363.13583,386.53846 365.74418,390.53393 369.12673,393.68146 373.27428,395.98565 374.19596,396.59857 377.80433,398.36819 384.10399,401.2853 397.00747,407.12413 411.06306,412.03667 426.27073,416.03214 427.96201,416.49298 429.64868,416.95382 431.33996,417.41465 L 430.87912,418.10591 H 430.6487 V 418.56675 L 422.58402,428.7052 417.5148,418.56675 415.44102,457.04678 415.2106,454.51217 414.98018,453.36007 410.3718,415.80172 410.14138,413.95836 C 410.45014,414.11044 410.75429,414.34086 411.06306,414.64962 411.21513,417.41465 411.60224,422.25346 412.21515,429.16604 412.36723,429.93103 412.51931,431.31355 412.67599,433.30898 412.98014,434.84818 413.59767,436.00028 414.51935,436.76527 415.44102,433.5394 415.51937,429.31812 414.74977,424.09221 413.98016,419.33174 412.75433,416.18421 411.06306,414.64501 410.91098,412.95374 410.83264,412.03206 410.83264,411.87998 L 409.91096,413.49292 C 408.52844,413.18415 407.22427,412.80166 405.99383,412.34082 396.00745,409.42371 387.48194,406.27157 380.41728,402.89363 364.59208,395.36813 355.91449,386.60759 354.37989,376.62582 352.8453,367.10028 363.90543,358.88353 387.56028,351.97095 409.52846,345.82797 436.17877,342.29334 467.5158,341.37166 499.77451,340.44998 527.11607,342.75417 549.54509,348.28424 574.73453,354.5839 587.86844,364.0311 588.9468,376.62582 590.02055,387.07303 581.26462,396.82438 562.67899,405.88908 559.45312,407.42367 556.14891,408.88453 552.77096,410.26705 550.93221,410.87996 549.16259,411.57583 547.47592,412.34082 536.41579,416.17961 524.28191,418.94464 511.06966,420.63592 506.46128,421.25344 501.70081,421.78801 496.78366,422.25346 488.33188,422.7143 480.11513,422.86638 472.12879,422.7143 468.13332,422.56222 464.06412,422.41015 459.91657,422.25346 459.14697,422.25346 458.45571,422.17512 457.84279,422.01843 H 456.92112 C 454.46024,421.71428 451.99936,421.41013 449.54309,421.10136 z M 379.72602,383.77343 C 379.42187,379.62588 380.41728,375.93917 382.72147,372.7133 381.95187,375.32625 382.49106,378.09129 384.33441,381.0084 L 387.32986,381.23882 384.79525,379.8563 C 383.41273,373.0958 390.32531,366.80074 405.53299,360.96191 413.36725,357.88812 422.43195,354.89267 432.72247,351.97556 430.2662,351.6714 427.88367,351.6714 425.57947,351.97556 L 425.80989,351.74514 C 426.88365,351.59306 430.03579,351.51472 435.25709,351.51472 439.25256,351.6714 442.24801,351.05388 444.24344,349.67136 442.86093,349.05845 441.55675,348.51927 440.32631,348.05843 455.84275,346.98467 473.1196,347.13675 492.17067,348.51927 517.5168,350.67138 538.86746,353.66684 556.22264,357.50562 550.23174,351.82348 539.71079,347.98009 524.65519,345.98465 508.065,344.75421 497.00487,343.7588 491.4748,342.9892 487.48394,342.52836 481.72345,342.68044 474.19335,343.45004 465.13326,344.5238 459.06402,345.06298 455.99022,345.06298 449.07764,345.06298 442.77798,345.75423 437.09583,347.13675 432.63952,346.52384 427.49656,347.21509 421.65774,349.21052 420.12314,349.67136 418.81436,350.21054 417.74061,350.82346 397.77247,354.20141 384.56022,360.50107 378.10848,369.71785 374.57385,370.7916 372.03923,371.63954 370.50464,372.25246 H 376.49554 C 375.42179,373.78705 374.80427,375.4046 374.65219,377.09127 374.4955,376.93919 374.34343,376.7825 374.19135,376.63043 L 370.50925,374.32623 C 370.35717,374.47831 369.58757,374.86542 368.20506,375.47833 367.28338,375.93917 366.74881,377.09127 366.59212,378.93462 368.89631,383.23425 375.03929,386.38638 385.02567,388.38182 383.03024,386.9993 381.26062,385.46471 379.72602,383.77343 z M 459.68154,393.22062 C 472.7371,397.21609 486.6406,398.75069 501.38744,397.82901 523.19894,396.75525 533.56781,388.69058 532.49406,373.63498 L 529.4986,370.63952 C 529.96405,370.33076 530.34655,370.10034 530.6507,369.94827 H 529.03777 526.96399 C 527.42483,370.40911 527.96401,371.02202 528.57693,371.79162 515.67344,381.62131 501.16163,387.3818 485.03228,389.07307 473.04586,390.14683 457.22527,388.99473 437.56589,385.61678 429.57955,385.76886 423.51031,385.69513 419.36276,385.38636 411.5285,384.77345 406.38554,381.46923 403.92466,375.47833 409.60681,368.71783 419.28442,363.6486 432.9575,360.27065 443.09595,357.6577 453.54317,356.35352 464.29453,356.35352 475.0459,356.35352 485.72353,357.04478 496.32283,358.4273 509.99591,360.27065 520.36478,362.95734 527.42944,366.49198 515.29555,356.04476 494.86657,350.82346 466.13789,350.82346 456.15151,350.82346 444.40474,352.97558 430.88373,357.2752 417.21064,361.42275 405.76802,366.49198 396.55124,372.48288 397.625,380.93005 407.61137,386.84722 426.50576,390.22517 429.57495,390.68601 440.63508,391.68603 459.68154,393.22062 z M 411.29347,398.75069 C 410.21972,399.05945 409.14136,399.44194 408.0676,399.90278 410.83264,401.43738 414.36727,402.51574 418.66689,403.12865 422.96652,403.74157 428.42285,403.89825 435.02667,403.58949 437.94378,403.74157 444.85636,405.58492 455.76441,409.11956 463.13783,411.73251 469.58957,412.42377 475.11964,411.19333 480.6497,411.65417 486.56226,411.65417 492.86193,411.19333 498.08784,410.88457 505.69168,409.81082 515.67344,407.96746 520.58598,407.04578 527.58151,405.89369 536.6416,404.51117 544.32379,402.81989 551.08429,399.67236 556.91851,395.06398 558.14895,393.99022 559.30104,392.9902 560.3748,392.06852 556.68809,396.67691 554.76639,399.13318 554.61431,399.44194 558.30102,400.36362 562.60065,396.21607 567.5178,386.9993 571.36119,379.93464 572.20453,375.39999 570.05241,373.40456 569.90033,372.48288 569.59157,371.5612 569.13534,370.63952 567.9049,365.41822 563.52693,361.50109 555.99683,358.88814 565.67905,369.17867 564.44861,378.32171 552.31012,386.30804 543.3975,392.14687 534.64617,395.44647 526.04231,396.21607 524.50772,396.36815 514.90845,398.28985 497.23989,401.97656 485.41477,404.12867 475.8155,404.66325 468.43747,403.58949 462.59865,402.51574 454.07313,400.67238 442.86093,398.05943 431.33996,395.2944 422.89279,393.45104 417.5148,392.52936 406.45467,391.60769 397.46831,390.60767 390.55573,389.53391 388.40362,389.22976 386.56026,388.84265 385.02567,388.38182 391.01657,392.9902 398.77249,396.21607 408.29802,398.05943 409.37178,398.2115 410.3718,398.44192 411.29347,398.75069 z M 529.26818,371.33078 C 529.26818,371.79162 529.26818,372.17412 529.26818,372.48288 529.11611,372.3308 528.88569,372.10038 528.57693,371.79162 528.73361,371.63954 528.96403,371.48286 529.26818,371.33078 z M 503.69164,394.37272 C 504.45663,394.06396 505.30457,393.83354 506.22625,393.68146 507.91292,393.3727 509.53046,393.06854 511.06506,392.75978 508.76086,393.52938 506.30459,394.06396 503.69164,394.37272 z M 498.16157,374.78707 C 493.70526,375.39999 485.41016,376.55209 473.27628,378.24336 461.912,379.93464 453.15606,379.31712 447.00847,376.40001 448.39099,373.63498 451.00395,371.48286 454.84273,369.94827 453.30814,371.63954 451.99936,373.8654 450.9256,376.63043 453.84271,371.71328 458.75986,369.10493 465.67244,368.79617 469.51123,368.64409 474.58506,369.02659 480.88012,369.94827 H 481.57138 L 487.09683,372.25246 C 487.25352,370.71787 486.79268,369.48743 485.71432,368.56575 487.55767,368.71783 489.47476,369.10493 491.4748,369.71785 488.86645,367.41365 484.86637,366.03114 479.493,365.5703 479.02755,365.5703 477.95379,365.49196 476.26712,365.33988 H 476.04131 C 475.62195,365.33988 475.3178,365.33988 475.11964,365.33988 H 474.6588 C 473.58504,365.33988 472.42834,365.33988 471.20251,365.33988 H 467.5158 C 466.90288,365.33988 466.21162,365.33988 465.44202,365.33988 464.98118,365.33988 464.52035,365.33988 464.05951,365.33988 458.99028,365.33988 455.53399,365.41822 453.69064,365.5703 451.99936,365.87445 450.46477,366.41363 449.08225,367.18323 442.63051,368.25699 436.6396,370.02661 431.10954,372.48288 432.33998,382.62133 443.16969,387.07764 463.59867,385.8472 474.50211,385.38636 483.33639,383.9255 490.09689,381.46923 L 486.87102,384.00385 C 491.47941,384.00385 495.08778,383.46467 497.70534,382.39091 501.54413,380.69963 504.61792,377.63045 506.92212,373.17414 506.00044,372.56122 504.46124,371.9437 502.31373,371.33078 L 498.16157,374.78707 z M 377.42183,370.98515 C 377.59695,370.57501 377.82737,370.15104 378.11309,369.71785 H 378.34351 C 377.91032,370.15104 377.60156,370.57501 377.42183,370.98515 z M 474.42838,373.17414 C 473.19794,371.9437 471.28085,371.33078 468.66789,371.33078 H 467.05496 C 464.90284,371.02202 462.36823,371.63494 459.45112,373.17414 460.68156,375.63041 463.05949,376.7825 466.59412,376.63043 469.97207,376.47835 472.58502,375.32625 474.42838,373.17414 z"
                     id="path234"
                     inkscape:connector-curvature="0" />
                <path
                     style="fill:#99744a;fill-rule:evenodd"
                     d="M 540.32831,367.41365 C 543.24542,368.79617 543.47584,372.7133 541.01496,379.16504 537.94578,388.07766 533.79823,391.29892 528.57232,388.84265 532.10695,385.46471 535.1024,381.778 537.55867,377.78252 539.7154,373.78705 540.63708,370.33076 540.32831,367.41365 539.25456,366.95282 537.94578,366.80074 536.40658,366.95282 L 538.94119,363.95736 C 539.7154,364.87904 540.17163,366.03114 540.32831,367.41365 z M 432.49206,418.56675 431.57038,420.17969 H 430.6487 L 428.57493,425.70975 C 428.727,424.17055 428.80535,422.78803 428.80535,421.5622 L 426.27073,425.70975 422.3536,434.69611 C 420.97109,432.39191 420.04941,430.6269 419.58857,429.40107 419.74065,433.39193 419.58857,438.1524 419.12773,443.68707 418.81897,445.68711 418.51482,448.14338 418.20606,451.0651 L 416.59312,454.75181 416.13228,455.9039 415.90186,456.13432 415.44102,457.056 417.5148,418.56675 422.58402,428.7052 430.6487,418.56675 430.87912,418.10591 431.33996,417.41465 C 429.64868,416.95382 427.96201,416.49298 426.27073,416.03214 411.06306,412.03667 397.00747,407.12413 384.10399,401.2853 377.80433,398.36819 374.19596,396.59857 373.27428,395.98565 369.12673,393.68146 365.74879,390.52932 363.13583,386.53846 360.3708,382.39091 358.67952,378.16963 358.0666,373.8654 357.60577,368.64409 359.37078,365.41822 363.36625,364.18778 357.22327,374.17416 362.82707,384.31261 380.18686,394.60314 393.09035,402.28532 404.68966,406.97205 414.98018,408.65872 414.98018,408.0458 415.13226,407.50662 415.44102,407.04578 L 421.20151,407.50662 C 421.04943,408.11954 420.74067,408.73706 420.27983,409.34998 427.34449,410.58042 436.71334,412.19335 448.39099,414.18878 460.52487,416.18882 471.12416,416.80174 480.18425,416.03214 504.45663,414.34086 527.34188,409.81082 548.84922,402.4374 556.37933,400.1332 560.52227,398.82903 561.29187,398.52027 567.43485,396.21607 571.27363,393.99022 572.81283,391.83811 575.42118,387.99932 576.26912,383.08217 575.34745,377.09127 574.42577,371.10036 572.19531,367.18323 568.66529,365.33988 L 567.97864,363.95736 C 574.12162,366.87447 578.03875,371.33078 579.73002,377.32169 581.56877,383.93011 579.65168,389.99475 573.96954,395.52482 566.13528,403.207 555.07054,409.11956 540.78915,413.26711 522.05145,418.64509 502.92204,421.63594 483.41473,422.25346 465.44202,422.7143 448.54768,421.25344 432.72247,417.87549 L 432.49206,418.56675 z M 440.32631,348.05843 C 439.25256,347.59759 438.1742,347.28883 437.10044,347.13675 442.78258,345.75423 449.08225,345.06298 455.99483,345.06298 459.06862,345.06298 465.13326,344.5238 474.19796,343.45004 481.72806,342.68044 487.48855,342.52836 491.47941,342.9892 497.00947,343.7588 508.07421,344.75421 524.6598,345.98465 539.7154,347.98009 550.23635,351.82348 556.22725,357.50562 538.86746,353.66684 517.5168,350.67138 492.17067,348.51927 473.1196,347.13675 455.84275,346.98467 440.32631,348.05843 z M 506.22625,393.68146 C 505.30457,393.83354 504.45663,394.06396 503.69164,394.37272 501.38744,394.5248 499.08325,394.60314 496.77906,394.60314 478.19343,391.99479 465.82452,391.52934 459.68154,393.22062 440.63508,391.68603 429.57495,390.68601 426.50115,390.22517 407.60677,386.84722 397.62039,380.93005 396.54664,372.48288 405.76341,366.49198 417.20604,361.42275 430.87912,357.2752 444.40013,352.97558 456.14691,350.82346 466.13328,350.82346 494.85736,350.82346 515.29095,356.04476 527.42483,366.49198 520.36017,362.95734 509.9913,360.27065 496.31822,358.4273 485.71893,357.04478 475.0459,356.35352 464.28993,356.35352 453.53856,356.35352 443.09135,357.6577 432.95289,360.27065 419.27981,363.6486 409.6022,368.71783 403.92006,375.47833 406.38093,381.46923 411.52389,384.77345 419.35815,385.38636 423.5057,385.69513 429.57495,385.76886 437.56128,385.61678 457.22527,388.99473 473.04586,390.14683 485.02767,389.07307 501.15702,387.3818 515.66883,381.62131 528.57232,371.79162 527.9594,371.02202 527.42022,370.40911 526.95938,369.94827 H 529.03316 530.64609 C 530.34194,370.10495 529.95944,370.33076 529.494,370.63952 L 529.03316,369.94827 C 529.03316,370.40911 529.1115,370.86994 529.26358,371.33078 528.95942,371.48286 528.729,371.63494 528.57232,371.79162 528.88108,372.09578 529.1115,372.3308 529.26358,372.48288 529.26358,374.17416 529.41565,375.47833 529.72441,376.40001 529.1115,377.9346 528.42024,379.39546 527.65525,380.77798 527.80733,378.78254 527.42022,376.63043 526.50315,374.32623 L 525.58147,378.93462 C 522.81183,383.54301 518.51682,386.76888 512.67799,388.61223 505.14789,390.76435 500.46577,392.52936 498.6178,393.91188 501.23537,393.91188 503.76998,393.83354 506.22625,393.68146 z M 475.11964,411.19333 C 475.73716,410.88457 476.27173,410.65415 476.73257,410.50207 468.43747,409.5804 460.60322,408.0458 453.2298,405.89369 443.40011,402.35905 435.79627,399.98113 430.41828,398.75069 422.7361,397.05941 416.3627,397.05941 411.29347,398.75069 410.3718,398.44653 409.37178,398.2115 408.29802,398.05943 398.77249,396.21607 391.01657,392.9902 385.02567,388.38182 386.56026,388.84265 388.40362,389.22976 390.55573,389.53391 397.46831,390.60767 406.45467,391.60769 417.5148,392.52936 422.89279,393.45104 431.33996,395.2944 442.86093,398.05943 454.07313,400.67238 462.59865,402.51574 468.43747,403.58949 475.8155,404.66325 485.41477,404.12867 497.23989,401.97656 514.90845,398.28985 524.50772,396.36815 526.04231,396.21607 534.64617,395.44647 543.40211,392.14687 552.31012,386.30804 564.44861,378.32171 565.67444,369.17867 555.99683,358.88814 563.52693,361.50109 567.9049,365.41822 569.13534,370.63952 568.51782,369.25701 567.29199,368.02657 565.44402,366.95282 V 369.94827 C 566.21362,377.63045 562.98775,383.62135 555.76641,387.92098 553.15806,389.45557 547.54966,391.37727 538.9458,393.68146 528.04235,396.59857 514.67342,402.12863 498.85744,410.27165 512.52591,407.96746 528.57693,403.81991 547.01048,397.82901 551.77555,396.29442 557.301,392.14687 563.60528,385.38636 565.13987,384.00385 566.29197,382.69967 567.06157,381.46923 566.13989,384.23427 564.83572,386.6168 563.13983,388.61223 562.06608,389.84267 561.1444,390.99477 560.3748,392.06852 559.30104,392.9902 558.14895,393.99022 556.91851,395.06398 551.07968,399.67236 544.32379,402.81989 536.6416,404.51117 527.58151,405.89369 520.59059,407.04578 515.67344,407.96746 505.69168,409.81082 498.08784,410.88457 492.86193,411.19333 486.56226,411.65417 480.6497,411.65417 475.11964,411.19333 z M 449.08225,367.18323 C 446.00845,368.56575 443.70426,370.56118 442.16967,373.17414 443.09135,376.70877 444.5522,378.62586 446.54764,378.93462 446.39556,379.0867 446.31722,379.31712 446.31722,379.62588 448.16057,380.08672 449.39101,380.16506 450.00393,379.8563 L 446.77806,378.93462 H 446.54764 C 446.70432,378.01294 446.8564,377.16961 447.00847,376.40001 453.15145,379.31712 461.90739,379.93464 473.27628,378.24336 485.41477,376.55209 493.70987,375.39999 498.16157,374.78707 L 490.09689,381.46923 C 483.33639,383.93011 474.50211,385.38636 463.59867,385.8472 443.16969,387.07764 432.33998,382.62133 431.10954,372.48288 436.6396,370.02661 442.63051,368.25699 449.08225,367.18323 z M 377.42183,370.98515 V 371.10036 L 377.19141,371.33078 C 376.88265,371.63494 376.65223,371.9437 376.50015,372.25246 H 370.50925 C 372.04384,371.63954 374.57845,370.79621 378.11309,369.71785 384.56483,360.50107 397.77708,354.20141 417.74522,350.82346 409.29804,354.20141 402.99838,356.43187 398.85083,357.50562 391.16865,359.65774 384.86898,363.11403 379.95644,367.87449 379.34353,368.48741 378.80435,369.10493 378.34351,369.71785 H 378.11309 C 377.82737,370.15104 377.59234,370.57501 377.42183,370.98515 z M 385.02567,388.38182 C 375.03929,386.38638 368.89631,383.23425 366.59212,378.93462 366.7442,377.09127 367.28338,375.93917 368.20506,375.47833 369.58757,374.86542 370.35717,374.47831 370.50925,374.32623 L 374.19596,376.63043 C 374.34804,376.7825 374.50011,376.93919 374.6568,377.09127 374.50011,377.70418 374.42638,378.32171 374.42638,378.93462 374.2743,382.93009 376.42642,385.46471 380.87812,386.53846 L 379.72602,385.61678 C 379.57395,385.00387 379.57395,384.38634 379.72602,383.77343 381.26062,385.46471 383.03024,386.9993 385.02567,388.38182 z M 474.42838,373.17414 C 472.58963,375.32625 469.97668,376.47835 466.59412,376.63043 463.05949,376.7825 460.68156,375.63041 459.45112,373.17414 462.36823,371.63954 464.90284,371.02202 467.05496,371.33078 H 468.66789 C 471.28085,371.33078 473.19794,371.9437 474.42838,373.17414 z"
                     id="path236"
                     inkscape:connector-curvature="0" />
                <path
                     style="fill:#d4a36c;fill-rule:evenodd"
                     d="M 459.68154,393.22062 C 465.82452,391.52934 478.19343,391.99018 496.77906,394.60314 499.08325,394.60314 501.38744,394.5248 503.69164,394.37272 506.29998,394.06396 508.76086,393.52478 511.06506,392.75978 514.59969,391.83811 517.67348,390.45559 520.28183,388.61223 523.20355,386.46012 525.65982,383.85177 527.65986,380.77798 528.42485,379.39546 529.11611,377.9346 529.72902,376.40001 529.42487,375.47833 529.26818,374.17416 529.26818,372.48288 529.26818,372.17412 529.26818,371.79162 529.26818,371.33078 529.11611,370.86994 529.03777,370.40911 529.03777,369.94827 L 529.4986,370.63952 532.49406,373.63498 C 533.56781,388.69058 523.19894,396.75525 501.38744,397.82901 486.6406,398.75069 472.7371,397.21609 459.68154,393.22062 z M 570.05241,373.40456 C 572.20453,375.4046 571.36119,379.93464 567.5178,386.9993 562.60526,396.21607 558.30102,400.36362 554.61431,399.44194 554.76639,399.13318 556.68809,396.67691 560.3748,392.06852 561.1444,390.99477 562.06147,389.84267 563.13983,388.61223 564.83111,386.61219 566.13528,384.23427 567.06157,381.46923 567.82656,379.16504 568.44408,376.70877 568.90031,374.09582 569.057,373.63498 569.13534,373.17414 569.13534,372.7133 568.51782,373.17414 568.36574,373.4829 568.66989,373.63498 L 568.90031,374.09582 567.28738,372.25246 C 568.20906,372.25246 568.97405,372.48288 569.59157,372.94372 569.74365,373.0958 569.89573,373.25248 570.05241,373.40456 z M 490.09689,381.46923 498.16157,374.78707 502.30912,371.33078 C 504.45663,371.9437 505.99583,372.56122 506.91751,373.17414 504.61331,377.63045 501.53952,380.69963 497.70073,382.39091 495.08778,383.46467 491.4748,384.00385 486.86641,384.00385 L 490.09689,381.46923 z M 465.44202,365.33988 C 466.21162,365.33988 466.90288,365.33988 467.5158,365.33988 H 471.20251 C 472.43295,365.33988 473.58504,365.33988 474.6588,365.33988 H 475.11964 C 475.44683,365.3491 475.83394,365.42744 476.27173,365.5703 478.11509,365.72238 479.57595,365.9528 480.6497,366.26156 482.80182,366.87447 484.48849,367.64407 485.71893,368.56575 486.79268,369.48743 487.25813,370.71787 487.10144,372.25246 L 481.57599,369.94827 H 480.88473 C 474.58967,369.02659 469.51584,368.64409 465.67705,368.79617 458.76447,369.10493 453.84732,371.71328 450.93021,376.63043 452.00397,373.8654 453.31275,371.63954 454.84734,369.94827 456.38193,368.41367 458.07321,367.26158 459.91657,366.49198 460.22072,366.3399 460.45575,366.26156 460.60783,366.26156 461.83366,365.80072 463.44659,365.49196 465.44202,365.33988 z M 475.11964,411.19333 C 469.58957,412.42377 463.13783,411.73251 455.76441,409.11956 444.85636,405.58492 437.94378,403.74157 435.02667,403.58949 428.42285,403.89365 422.96652,403.74157 418.66689,403.12865 414.36727,402.51574 410.83264,401.43738 408.0676,399.90278 409.14136,399.44194 410.21511,399.05945 411.29347,398.75069 416.3627,397.05941 422.7361,397.05941 430.41828,398.75069 435.79627,399.98113 443.40011,402.36366 453.2298,405.89369 460.60322,408.0458 468.43747,409.5804 476.73257,410.50207 476.27173,410.65415 475.73716,410.88457 475.11964,411.19333 z M 425.57947,351.97556 C 427.88367,351.6714 430.2662,351.6714 432.72247,351.97556 422.43195,354.89267 413.36725,357.88812 405.53299,360.96191 390.32531,366.80074 383.41273,373.0958 384.79525,379.8563 L 387.32986,381.23882 384.33441,381.0084 C 382.49106,378.09129 381.95187,375.32625 382.72147,372.7133 383.18231,371.63954 383.79523,370.63952 384.56483,369.71785 385.63858,368.33533 386.94737,367.18323 388.48196,366.26156 389.55571,365.64864 390.78615,365.03112 392.16867,364.4182 402.61588,359.34898 409.29804,356.27518 412.21515,355.20143 416.05394,353.81891 419.74065,352.81889 423.27528,352.20598 423.73612,352.04929 424.2753,351.97556 424.88822,351.97556 425.04029,351.97556 425.19237,351.97556 425.34906,351.97556 H 425.57947 z M 410.14138,413.95836 C 409.9893,413.80629 409.83722,413.72794 409.68054,413.72794 L 409.91096,413.49752 410.83264,411.88459 C 410.83264,412.03667 410.91098,412.95834 411.06306,414.64962 412.75433,416.18421 413.98016,419.33635 414.74977,424.09682 415.51937,429.32273 415.44102,433.54401 414.51935,436.76988 413.59767,436.00489 412.98475,434.85279 412.67599,433.31359 412.51931,431.31355 412.36723,429.93564 412.21515,429.17065 411.60224,422.25807 411.21513,417.41926 411.06306,414.65423 410.75429,414.34086 410.45014,414.11044 410.14138,413.95836 z"
                     id="path238"
                     inkscape:connector-curvature="0" />
                <path
                     style="fill:#8c6a44;fill-rule:evenodd"
                     d="M 428.57493,425.70975 417.05396,457.50301 C 417.05396,457.19886 417.1323,456.8901 417.28438,456.58134 V 456.35552 C 417.58853,454.35548 417.89729,452.59508 418.20606,451.06049 418.51482,448.13877 418.81897,445.6825 419.12773,443.68246 419.58857,438.1524 419.74065,433.39193 419.58857,429.39646 420.04941,430.6269 420.97109,432.3873 422.3536,434.6915 L 426.27073,425.70975 428.80535,421.5622 C 428.80535,422.79264 428.727,424.17055 428.57493,425.70975 z M 417.74522,350.82346 C 418.81897,350.21054 420.12775,349.67136 421.66235,349.21052 427.50117,347.21509 432.64413,346.52384 437.10044,347.13675 438.1742,347.28883 439.25256,347.59759 440.32631,348.05843 441.55675,348.51927 442.86093,349.05845 444.24344,349.67136 442.24801,351.05388 439.25256,351.6714 435.25709,351.51472 430.03579,351.51472 426.88365,351.59306 425.80989,351.74514 L 425.57947,351.97556 H 425.34906 C 425.19237,351.97556 425.04029,351.97556 424.88822,351.97556 424.2753,351.97556 423.73612,352.0539 423.27528,352.20598 419.74065,352.81889 416.05394,353.81891 412.21515,355.20143 409.29804,356.27518 402.61588,359.34898 392.16867,364.4182 390.78615,365.03112 389.55571,365.64864 388.48196,366.26156 386.94737,367.18323 385.63858,368.33533 384.56483,369.71785 383.79523,370.63952 383.18231,371.63954 382.72147,372.7133 380.41728,375.93917 379.41726,379.62588 379.72602,383.77343 379.57395,384.38634 379.57395,385.00387 379.72602,385.61678 L 380.87812,386.53846 C 376.42642,385.46471 374.2743,382.93009 374.42638,378.93462 374.42638,378.32171 374.50472,377.70418 374.6568,377.09127 374.80887,375.39999 375.4264,373.78705 376.50015,372.25246 376.65223,371.94831 376.88265,371.63954 377.19141,371.33078 L 377.42183,371.10036 V 370.98515 C 377.60617,370.57501 377.91032,370.15104 378.34351,369.71785 378.80435,369.10493 379.34353,368.48741 379.95644,367.87449 384.86898,363.11403 391.16865,359.65774 398.85083,357.50562 402.99838,356.43187 409.29804,354.20141 417.74522,350.82346 z M 567.05696,381.46923 C 566.28736,382.69967 565.13526,384.00385 563.60067,385.38636 557.301,392.14687 551.77555,396.29442 547.00587,397.82901 528.57232,403.81991 512.52131,407.96746 498.85283,410.27165 514.67342,402.12863 528.03775,396.60318 538.94119,393.68146 547.54505,391.37727 553.15346,389.45557 555.7618,387.92098 562.97854,383.61674 566.20902,377.63045 565.43942,369.94827 V 366.95282 C 567.28277,368.02657 568.51321,369.25701 569.13073,370.63952 569.59157,371.5612 569.89573,372.48288 570.0478,373.40456 569.89573,373.25248 569.74365,373.1004 569.58696,372.94372 568.96944,372.48288 568.20445,372.25246 567.28277,372.25246 L 568.89571,374.09582 568.66529,373.63498 C 568.36113,373.4829 568.51321,373.17414 569.13073,372.7133 569.13073,373.17414 569.05239,373.63498 568.89571,374.09582 568.43948,376.70877 567.82195,379.16504 567.05696,381.46923 z M 552.77096,410.27165 C 553.69264,410.27165 554.54058,410.19331 555.31018,410.04123 556.99685,409.88916 558.60979,409.73247 560.14899,409.5804 557.69272,410.19331 555.23645,410.73249 552.77096,411.19333 550.93221,411.50209 549.16259,411.88459 547.47592,412.34543 549.15798,411.57583 550.9276,410.88457 552.77096,410.27165 z M 511.06506,392.75978 C 509.53046,393.06854 507.91292,393.3727 506.22625,393.68146 503.76998,393.83354 501.23537,393.91188 498.62241,393.91188 500.46577,392.52936 505.15249,390.76435 512.6826,388.61223 518.52143,386.76888 522.81644,383.54301 525.58608,378.93462 L 526.50776,374.32623 C 527.42483,376.63043 527.81193,378.78254 527.65986,380.77798 525.65982,383.85177 523.20355,386.46012 520.28183,388.61223 517.66887,390.45559 514.59508,391.83811 511.06506,392.75978 z M 475.11964,365.33988 C 475.3178,365.33988 475.62195,365.33988 476.04131,365.33988 H 476.27173 C 477.9584,365.49656 479.03677,365.5703 479.4976,365.5703 484.87098,366.03114 488.86645,367.41365 491.47941,369.71785 489.47937,369.10493 487.56228,368.71783 485.71893,368.56575 484.48849,367.64407 482.80182,366.87447 480.6497,366.26156 479.57595,365.9528 478.11509,365.72238 476.27173,365.5703 475.83394,365.42283 475.44683,365.3491 475.11964,365.33988 z M 465.44202,365.33988 C 463.44659,365.49656 461.83366,365.80072 460.60322,366.26156 460.45114,366.26156 460.22072,366.3399 459.91196,366.49198 458.0686,367.26158 456.37733,368.41367 454.84273,369.94827 451.00395,371.48286 448.39099,373.63498 447.00847,376.40001 446.8564,377.16961 446.70432,378.01294 446.54764,378.93462 H 446.77806 L 450.00393,379.8563 C 449.39101,380.16045 448.16057,380.08672 446.31722,379.62588 446.31722,379.32173 446.39556,379.0867 446.54764,378.93462 444.5522,378.62586 443.09135,376.70877 442.16967,373.17414 443.70426,370.56118 446.00845,368.56575 449.08225,367.18323 450.46477,366.41363 451.99936,365.87445 453.69064,365.5703 455.53399,365.41822 458.99028,365.33988 464.05951,365.33988 464.52035,365.33988 464.98118,365.33988 465.44202,365.33988 z"
                     id="path240"
                     inkscape:connector-curvature="0" />
                <path
                     style="fill:#945c1d;fill-rule:evenodd"
                     d="M 430.6487,418.56675 V 418.10591 H 430.87912 L 430.6487,418.56675 z M 540.78915,419.71885 C 521.43393,424.94015 499.54409,428.16602 475.11964,429.39646 460.22072,429.8573 446.31722,429.54854 433.41373,428.47478 L 438.02212,420.17969 H 431.57038 L 432.49206,418.56675 C 438.1742,419.6405 443.86095,420.48845 449.54309,421.10136 445.85638,420.94468 441.93925,420.86634 437.7917,420.86634 L 450.46477,421.55759 C 452.61688,421.70967 454.769,421.86175 456.91651,422.01843 H 457.83818 C 458.4511,422.17512 459.14236,422.25346 459.91196,422.25346 464.05951,422.40554 468.12871,422.55761 472.12418,422.7143 485.79266,423.33182 497.627,423.63598 507.60877,423.63598 517.44306,423.63598 528.49858,422.3318 540.78915,419.71885 z M 511.06506,420.64052 C 524.2773,418.94925 536.41118,416.18882 547.47131,412.34543 549.15798,411.88459 550.9276,411.50209 552.76635,411.19333 540.01494,416.41463 529.64607,419.41009 521.65974,420.17969 518.74724,420.33176 515.2126,420.48845 511.06506,420.64052 z M 380.41728,402.89823 361.98373,401.74614 C 360.60122,400.82446 359.52285,400.05486 358.75786,399.44194 354.30155,395.75523 350.38442,388.61223 347.00647,378.01294 346.23687,366.18782 358.37076,356.43187 383.41273,348.74969 406.91551,341.52834 435.71793,337.7679 469.81999,337.45914 504.69166,336.84622 533.87657,339.91541 557.37935,346.67591 583.95591,354.20141 597.08982,364.8007 596.78566,378.47378 596.4769,388.1514 590.02516,396.90733 577.43044,404.74159 579.73463,402.58947 582.03883,400.1332 584.34302,397.36817 L 588.48596,393.68146 C 581.4213,397.67693 573.35662,401.82448 564.29193,406.12411 561.22274,407.50662 558.22729,408.8108 555.31018,410.04123 554.54058,410.19331 553.69264,410.27165 552.77096,410.27165 556.14891,408.88914 559.45312,407.42828 562.67899,405.89369 581.26462,396.82899 590.02516,387.07764 588.9468,376.63043 587.87304,364.03571 574.73453,354.58851 549.54509,348.28885 527.11607,342.75878 499.7699,340.45459 467.5158,341.37627 436.17877,342.29794 409.52846,345.83258 387.56028,351.97556 363.90543,358.88814 352.8453,367.10489 354.37989,376.63043 355.91449,386.6168 364.59669,395.37274 380.41728,402.89823 z M 366.59212,408.4283 C 373.80885,410.27165 382.18229,413.26711 391.70783,417.41465 393.09035,417.87549 394.78162,419.25801 396.77706,421.5622 394.47286,420.7926 392.24701,420.10134 390.09489,419.48843 380.87812,416.41463 373.04386,412.72792 366.59212,408.4283 z"
                     id="path242"
                     inkscape:connector-curvature="0" />
                <path
                     style="fill:#b06d22;fill-rule:evenodd"
                     d="M 417.05396,457.85325 V 457.50762 L 428.57493,425.71436 430.6487,420.18429 H 431.57038 438.02212 L 433.41373,428.47939 417.05396,458.19888 V 457.96846 457.85325 z M 511.06506,420.64052 C 515.2126,420.48845 518.74724,420.33637 521.66435,420.17969 529.65068,419.41009 540.01955,416.41463 552.77096,411.19333 555.23184,410.73249 557.68811,410.19331 560.14899,409.5804 558.60979,409.73247 556.99685,409.88916 555.31018,410.04123 558.22729,408.8108 561.22274,407.50662 564.29193,406.12411 573.35662,401.82448 581.4213,397.67693 588.48596,393.68146 L 584.33841,397.36817 C 582.03422,400.1332 579.73002,402.58947 577.42583,404.74159 573.73912,407.96746 569.89573,410.42373 565.90486,412.11501 559.75727,414.72336 551.61425,417.18423 541.48041,419.48843 541.17165,419.48843 540.94123,419.56677 540.78915,419.71885 528.49858,422.3318 517.44306,423.63598 507.60877,423.63598 497.627,423.63598 485.79727,423.33182 472.12418,422.7143 480.11052,422.86638 488.32727,422.7143 496.77906,422.25346 501.6962,421.79262 506.45667,421.25805 511.06506,420.64052 z M 403.68964,430.08772 407.60677,436.76988 409.45012,440.22617 C 408.8372,439.30449 408.29802,438.46116 407.83718,437.69156 403.38087,430.31814 399.69416,424.94015 396.77706,421.5622 394.78162,419.25801 393.09035,417.87549 391.70783,417.41465 382.1869,413.26711 373.81346,410.27165 366.59212,408.4283 365.51837,408.12415 364.51835,407.81538 363.59667,407.50662 357.91453,406.12411 353.9974,405.43285 351.84528,405.43285 346.46729,403.89825 343.7806,398.13777 343.7806,388.1514 L 345.62396,373.40456 C 345.93272,375.09584 346.39356,376.63043 347.00647,378.01294 350.38442,388.61223 354.30155,395.75523 358.75786,399.44194 359.52746,400.05486 360.60122,400.82446 361.98373,401.74614 365.05753,403.43742 368.89631,405.04574 373.5047,406.58494 378.726,408.11954 382.56479,408.88914 385.02567,408.88914 386.25611,408.88914 388.02112,409.96289 390.32531,412.11501 392.47743,413.95836 395.16412,416.64505 398.38999,420.17969 L 403.68964,430.08772 z M 456.91651,422.02304 C 454.769,421.87096 452.61688,421.71889 450.46477,421.5622 L 437.7917,420.87094 C 441.93925,420.87094 445.85638,420.94929 449.54309,421.10597 451.99936,421.41013 454.46024,421.71428 456.91651,422.02304 z"
                     id="path244"
                     inkscape:connector-curvature="0" />
                <path
                     style="fill:#593711;fill-rule:evenodd"
                     d="M 416.59312,454.74259 417.05396,457.85325 C 416.98944,457.74265 416.91571,457.62744 416.82354,457.50762 L 416.13228,455.89469 416.59312,454.74259 z M 410.3718,415.80172 414.98018,453.36007 407.37635,434.69611 405.76341,432.85275 403.68964,430.08772 398.38999,420.18429 C 395.16412,416.64966 392.47743,413.96297 390.32531,412.11962 L 389.17322,410.50668 410.3718,415.80172 z"
                     id="path246"
                     inkscape:connector-curvature="0" />
                <path
                     style="fill:#9c5f10;fill-rule:evenodd"
                     d="M 417.05396,457.50762 V 457.85325 457.96846 L 416.82354,457.50301 C 416.56547,457.05139 416.25671,456.59516 415.90186,456.1205 L 416.13228,455.89008 416.82354,457.50301 C 416.91571,457.62283 416.98944,457.73804 417.05396,457.84864 L 416.59312,454.73798 418.20606,451.05127 C 417.9019,452.58586 417.59314,454.35088 417.28438,456.34631 V 456.57673 C 417.1323,456.89471 417.05396,457.19886 417.05396,457.50762 z M 380.41728,402.89823 C 387.48194,406.27618 396.00745,409.42832 405.99383,412.34543 407.22427,412.80627 408.52844,413.18876 409.91096,413.49752 L 409.68054,413.72794 C 409.83722,413.72794 409.9893,413.80629 410.14138,413.95836 L 410.3718,415.80172 389.17322,410.50207 390.32531,412.11501 C 388.02112,409.96289 386.25611,408.88914 385.02567,408.88914 382.56479,408.88914 378.726,408.11954 373.5047,406.58494 368.89631,405.05035 365.05753,403.43742 361.98373,401.74614 L 380.41728,402.89823 z M 414.98018,453.36007 415.2106,454.51217 C 412.13681,447.75167 409.68054,442.14326 407.83718,437.69156 408.29802,438.46116 408.8372,439.30449 409.45012,440.22617 L 407.60677,436.76988 C 406.83716,435.23529 406.22425,433.93111 405.76341,432.85275 L 407.37635,434.69611 414.98018,453.36007 z"
                     id="path248"
                     inkscape:connector-curvature="0" />
            </g>
        </g>
    </g>
</svg>
