<?xml version="1.0" standalone="no"?>
<!-- Creator: fig2dev Version 3.2.6a -->
<!-- CreationDate: 2018-11-07 21:00:58 -->
<!-- Magnification: 1.05 -->
<svg	xmlns="http://www.w3.org/2000/svg"
	xmlns:xlink="http://www.w3.org/1999/xlink"
	width="175pt" height="192pt"
	viewBox="1693 2137 2763 3039">
<g fill="none">
<!-- Line -->
<polygon points=" 4451,3832 4450,3836 4449,3839 4447,3844 4444,3849 4441,3855 4436,3862 4429,3871
 4421,3881 4411,3894 4399,3908 4385,3924 4368,3943 4349,3963 4328,3986 4304,4011
 4278,4038 4250,4067 4218,4100 4200,4118 4181,4137 4161,4158 4140,4179 4118,4201
 4095,4224 4071,4249 4046,4274 4020,4300 3993,4327 3965,4354 3937,4383 3908,4411
 3878,4441 3849,4470 3819,4500 3788,4530 3758,4560 3728,4590 3698,4619 3668,4649
 3639,4677 3611,4705 3583,4732 3556,4759 3530,4785 3504,4809 3480,4833 3457,4856
 3434,4878 3413,4898 3392,4918 3373,4937 3355,4954 3322,4985 3292,5013 3265,5038
 3241,5061 3218,5081 3198,5100 3180,5115 3164,5129 3150,5140 3138,5150 3128,5157
 3119,5163 3112,5167 3106,5170 3102,5172 3098,5173 3095,5174 3092,5174 3083,5175
 3074,5175 3064,5175 3055,5174 3046,5173 3038,5171 3035,5170 3032,5169 3029,5168
 3025,5165 3020,5162 3013,5157 3005,5151 2995,5143 2984,5134 2971,5122 2955,5108
 2937,5092 2918,5073 2896,5052 2872,5029 2845,5003 2816,4975 2784,4944 2766,4926
 2747,4907 2726,4887 2705,4866 2683,4844 2660,4821 2636,4797 2611,4772 2585,4746
 2558,4719 2530,4692 2502,4663 2473,4635 2444,4605 2414,4576 2385,4546 2355,4515
 2325,4485 2295,4455 2265,4425 2236,4396 2207,4367 2179,4339 2152,4311 2125,4284
 2099,4258 2074,4233 2050,4208 2027,4185 2006,4163 1985,4141 1965,4121 1946,4102
 1928,4084 1897,4052 1868,4022 1843,3996 1819,3971 1798,3949 1780,3930 1763,3912
 1749,3897 1737,3883 1727,3872 1719,3862 1713,3854 1708,3848 1704,3842 1702,3838
 1700,3835 1699,3832 1698,3829 1696,3821 1695,3812 1694,3802 1694,3791 1694,3781
 1695,3771 1696,3767 1696,3763 1698,3759 1700,3754 1703,3747 1707,3740 1713,3730
 1720,3719 1730,3707 1741,3692 1755,3675 1771,3657 1790,3636 1810,3613 1833,3588
 1859,3560 1887,3530 1918,3498 1936,3479 1955,3460 1975,3439 1995,3418 2017,3396
 2040,3372 2064,3348 2089,3323 2115,3297 2142,3270 2169,3242 2198,3214 2226,3185
 2256,3156 2285,3126 2315,3096 2346,3067 2376,3037 2406,3007 2436,2977 2465,2948
 2494,2920 2523,2892 2551,2865 2578,2838 2604,2812 2629,2788 2654,2764 2677,2741
 2699,2720 2721,2699 2741,2679 2761,2661 2779,2643 2812,2612 2841,2585 2868,2559
 2893,2537 2916,2516 2936,2498 2955,2482 2971,2469 2985,2457 2998,2448 3008,2441
 3017,2435 3024,2430 3030,2427 3035,2425 3039,2424 3043,2423 3047,2423 3054,2422
 3063,2421 3071,2420 3081,2420 3090,2420 3099,2421 3107,2422 3116,2423 3119,2424
 3123,2426 3128,2427 3133,2430 3139,2434 3147,2439 3156,2446 3166,2454 3179,2464
 3193,2476 3209,2491 3227,2507 3248,2526 3270,2547 3295,2570 3322,2595 3351,2623
 3383,2654 3401,2672 3420,2691 3440,2710 3461,2731 3483,2752 3506,2775 3530,2798
 3555,2823 3580,2848 3607,2874 3634,2901 3662,2929 3690,2957 3719,2986 3748,3015
 3778,3044 3807,3073 3837,3103 3866,3132 3895,3161 3924,3190 3952,3219 3980,3246
 4007,3274 4033,3300 4059,3326 4083,3350 4107,3374 4129,3397 4151,3419 4171,3440
 4191,3460 4209,3479 4227,3497 4257,3529 4285,3559 4310,3585 4333,3610 4354,3633
 4372,3653 4388,3672 4402,3688 4414,3702 4424,3715 4431,3726 4438,3735 4442,3742
 4446,3749 4448,3754 4450,3759 4451,3763 4452,3766 4453,3774 4454,3782 4454,3791
 4455,3800 4454,3808 4454,3817 4452,3825" fill="#c8cbc4"/>
<!-- Line -->
<polygon points=" 2651,2327 2714,2337 4331,3126 4361,3173 4372,3223 4359,3282 3578,4897 3529,4935
 3474,4949 3407,4933 1796,4153 1763,4110 1752,4067 1760,4006 2526,2402 2570,2350
" fill="#00d100"/>
<!-- Line -->
<polygon points=" 3178,2159 3213,2160 3228,2192 3015,2992 3082,3023 3285,3048 3327,3092 3332,3142
 3291,3186 3230,3208 3147,3222 3184,3374 3233,3476 3338,3712 3401,3589 3545,3590
 3547,3877 3529,3965 3492,3987 3489,4050 3459,4077 3388,4014 3392,3979 3458,3962
 3456,3768 3415,3837 3321,3956 3288,4099 3217,4212 3135,4287 3032,4324 3018,4447
 2915,4581 2904,4626 3077,4615 3152,4635 3227,4697 3193,4734 3323,4832 3302,4929
 3273,4986 3173,4935 3075,4830 3004,4812 2721,4815 2620,4757 2623,4642 2557,4688
 2493,4680 2429,4594 2387,4457 2387,4361 2423,4291 2486,4191 2504,4110 2483,4074
 2427,4061 2408,4030 2417,3994 2449,3978 2521,4000 2504,3914 2501,3815 2531,3756
 2610,3720 2704,3729 2781,3810 2763,3858 2754,3888 2715,3894 2690,3850 2644,3840
 2648,4044 2664,4081 2639,4110 2576,4175 2523,4269 2475,4384 2480,4508 2512,4594
 2586,4602 2589,4571 2532,4475 2522,4336 2579,4231 2683,4082 2837,3975 2866,3904
 2912,3844 2940,3784 2934,3626 2831,3320 2824,3160 2857,3071 2914,3013 2919,2967
" fill="#ffffff"
	stroke="#008f00" stroke-width="15px"/>
<!-- Circle -->
<circle cx="3030" cy="3097" r="25" fill="#008f00"/>
<!-- Line -->
<polygon points=" 3263,3451 3259,3491 3334,3643 3359,3638 3379,3563 3389,3523 3388,3339 3403,3317
 3468,3315 3486,3304 3488,3274 3452,3256 3386,3259 3359,3279 3312,3308 3274,3387
 3262,3451" fill="#ffffff"
	stroke="#008f00" stroke-width="15px"/>
</g>
</svg>
